<mxfile host="app.diagrams.net" modified="2024-07-14T14:55:57.098Z" agent="Mozilla/5.0 (Windows NT 10.0; Win64; x64) AppleWebKit/537.36 (KHTML, like Gecko) Chrome/124.0.0.0 YaBrowser/24.6.0.0 Safari/537.36" etag="ZVmgPnd1SLxZQQXsaphz" version="24.6.4" type="device">
  <diagram id="C5RBs43oDa-KdzZeNtuy" name="Page-1">
    <mxGraphModel dx="2043" dy="1851" grid="1" gridSize="10" guides="1" tooltips="1" connect="1" arrows="1" fold="1" page="1" pageScale="1" pageWidth="827" pageHeight="1169" math="0" shadow="0">
      <root>
        <mxCell id="WIyWlLk6GJQsqaUBKTNV-0" />
        <mxCell id="WIyWlLk6GJQsqaUBKTNV-1" parent="WIyWlLk6GJQsqaUBKTNV-0" />
        <mxCell id="FtbCnX3Roro6FYzfa0a7-4" value="createDivBlocks" style="swimlane;fontStyle=0;childLayout=stackLayout;horizontal=1;startSize=26;fillColor=none;horizontalStack=0;resizeParent=1;resizeParentMax=0;resizeLast=0;collapsible=1;marginBottom=0;whiteSpace=wrap;html=1;" vertex="1" parent="WIyWlLk6GJQsqaUBKTNV-1">
          <mxGeometry x="400" y="65" width="140" height="156" as="geometry" />
        </mxCell>
        <mxCell id="FtbCnX3Roro6FYzfa0a7-5" value="+&amp;nbsp;&lt;span style=&quot;text-align: center;&quot;&gt;depth&lt;/span&gt;: type" style="text;strokeColor=none;fillColor=none;align=left;verticalAlign=top;spacingLeft=4;spacingRight=4;overflow=hidden;rotatable=0;points=[[0,0.5],[1,0.5]];portConstraint=eastwest;whiteSpace=wrap;html=1;" vertex="1" parent="FtbCnX3Roro6FYzfa0a7-4">
          <mxGeometry y="26" width="140" height="26" as="geometry" />
        </mxCell>
        <mxCell id="FtbCnX3Roro6FYzfa0a7-6" value="+ id: type" style="text;strokeColor=none;fillColor=none;align=left;verticalAlign=top;spacingLeft=4;spacingRight=4;overflow=hidden;rotatable=0;points=[[0,0.5],[1,0.5]];portConstraint=eastwest;whiteSpace=wrap;html=1;" vertex="1" parent="FtbCnX3Roro6FYzfa0a7-4">
          <mxGeometry y="52" width="140" height="26" as="geometry" />
        </mxCell>
        <mxCell id="FtbCnX3Roro6FYzfa0a7-7" value="+&amp;nbsp;&lt;span style=&quot;text-align: center;&quot;&gt;parent_id&lt;/span&gt;: type" style="text;strokeColor=none;fillColor=none;align=left;verticalAlign=top;spacingLeft=4;spacingRight=4;overflow=hidden;rotatable=0;points=[[0,0.5],[1,0.5]];portConstraint=eastwest;whiteSpace=wrap;html=1;" vertex="1" parent="FtbCnX3Roro6FYzfa0a7-4">
          <mxGeometry y="78" width="140" height="26" as="geometry" />
        </mxCell>
        <mxCell id="FtbCnX3Roro6FYzfa0a7-8" value="+&amp;nbsp;&lt;span style=&quot;text-align: center;&quot;&gt;text&lt;/span&gt;: type" style="text;strokeColor=none;fillColor=none;align=left;verticalAlign=top;spacingLeft=4;spacingRight=4;overflow=hidden;rotatable=0;points=[[0,0.5],[1,0.5]];portConstraint=eastwest;whiteSpace=wrap;html=1;" vertex="1" parent="FtbCnX3Roro6FYzfa0a7-4">
          <mxGeometry y="104" width="140" height="26" as="geometry" />
        </mxCell>
        <mxCell id="FtbCnX3Roro6FYzfa0a7-9" value="+&amp;nbsp;&lt;span style=&quot;text-align: center;&quot;&gt;folder&lt;/span&gt;: type" style="text;strokeColor=none;fillColor=none;align=left;verticalAlign=top;spacingLeft=4;spacingRight=4;overflow=hidden;rotatable=0;points=[[0,0.5],[1,0.5]];portConstraint=eastwest;whiteSpace=wrap;html=1;" vertex="1" parent="FtbCnX3Roro6FYzfa0a7-4">
          <mxGeometry y="130" width="140" height="26" as="geometry" />
        </mxCell>
        <mxCell id="FtbCnX3Roro6FYzfa0a7-10" value="iterateJSON" style="swimlane;fontStyle=0;childLayout=stackLayout;horizontal=1;startSize=26;fillColor=none;horizontalStack=0;resizeParent=1;resizeParentMax=0;resizeLast=0;collapsible=1;marginBottom=0;whiteSpace=wrap;html=1;" vertex="1" parent="WIyWlLk6GJQsqaUBKTNV-1">
          <mxGeometry x="400" y="275" width="140" height="130" as="geometry" />
        </mxCell>
        <mxCell id="FtbCnX3Roro6FYzfa0a7-11" value="+&amp;nbsp;&lt;span style=&quot;text-align: center;&quot;&gt;obj&lt;/span&gt;: type" style="text;strokeColor=none;fillColor=none;align=left;verticalAlign=top;spacingLeft=4;spacingRight=4;overflow=hidden;rotatable=0;points=[[0,0.5],[1,0.5]];portConstraint=eastwest;whiteSpace=wrap;html=1;" vertex="1" parent="FtbCnX3Roro6FYzfa0a7-10">
          <mxGeometry y="26" width="140" height="26" as="geometry" />
        </mxCell>
        <mxCell id="FtbCnX3Roro6FYzfa0a7-12" value="+&amp;nbsp;&lt;span style=&quot;text-align: center;&quot;&gt;depth&lt;/span&gt;: type" style="text;strokeColor=none;fillColor=none;align=left;verticalAlign=top;spacingLeft=4;spacingRight=4;overflow=hidden;rotatable=0;points=[[0,0.5],[1,0.5]];portConstraint=eastwest;whiteSpace=wrap;html=1;" vertex="1" parent="FtbCnX3Roro6FYzfa0a7-10">
          <mxGeometry y="52" width="140" height="26" as="geometry" />
        </mxCell>
        <mxCell id="FtbCnX3Roro6FYzfa0a7-16" value="+&amp;nbsp;&lt;span style=&quot;text-align: center;&quot;&gt;parent&lt;/span&gt;: type" style="text;strokeColor=none;fillColor=none;align=left;verticalAlign=top;spacingLeft=4;spacingRight=4;overflow=hidden;rotatable=0;points=[[0,0.5],[1,0.5]];portConstraint=eastwest;whiteSpace=wrap;html=1;" vertex="1" parent="FtbCnX3Roro6FYzfa0a7-10">
          <mxGeometry y="78" width="140" height="26" as="geometry" />
        </mxCell>
        <mxCell id="FtbCnX3Roro6FYzfa0a7-13" value="+&amp;nbsp;&lt;span style=&quot;text-align: center;&quot;&gt;indent&amp;nbsp;&lt;/span&gt;: type" style="text;strokeColor=none;fillColor=none;align=left;verticalAlign=top;spacingLeft=4;spacingRight=4;overflow=hidden;rotatable=0;points=[[0,0.5],[1,0.5]];portConstraint=eastwest;whiteSpace=wrap;html=1;" vertex="1" parent="FtbCnX3Roro6FYzfa0a7-10">
          <mxGeometry y="104" width="140" height="26" as="geometry" />
        </mxCell>
        <mxCell id="FtbCnX3Roro6FYzfa0a7-17" value="fetchDataWithFetchAPI" style="swimlane;fontStyle=0;childLayout=stackLayout;horizontal=1;startSize=26;fillColor=none;horizontalStack=0;resizeParent=1;resizeParentMax=0;resizeLast=0;collapsible=1;marginBottom=0;whiteSpace=wrap;html=1;" vertex="1" parent="WIyWlLk6GJQsqaUBKTNV-1">
          <mxGeometry x="400" y="445" width="140" height="104" as="geometry" />
        </mxCell>
        <mxCell id="FtbCnX3Roro6FYzfa0a7-18" value="+&amp;nbsp;&lt;span style=&quot;text-align: center;&quot;&gt;method&lt;/span&gt;: type" style="text;strokeColor=none;fillColor=none;align=left;verticalAlign=top;spacingLeft=4;spacingRight=4;overflow=hidden;rotatable=0;points=[[0,0.5],[1,0.5]];portConstraint=eastwest;whiteSpace=wrap;html=1;" vertex="1" parent="FtbCnX3Roro6FYzfa0a7-17">
          <mxGeometry y="26" width="140" height="26" as="geometry" />
        </mxCell>
        <mxCell id="FtbCnX3Roro6FYzfa0a7-19" value="+&amp;nbsp;&lt;span style=&quot;text-align: center;&quot;&gt;url&lt;/span&gt;: type" style="text;strokeColor=none;fillColor=none;align=left;verticalAlign=top;spacingLeft=4;spacingRight=4;overflow=hidden;rotatable=0;points=[[0,0.5],[1,0.5]];portConstraint=eastwest;whiteSpace=wrap;html=1;" vertex="1" parent="FtbCnX3Roro6FYzfa0a7-17">
          <mxGeometry y="52" width="140" height="26" as="geometry" />
        </mxCell>
        <mxCell id="FtbCnX3Roro6FYzfa0a7-20" value="+&amp;nbsp;&lt;span style=&quot;text-align: center;&quot;&gt;data&lt;/span&gt;: type" style="text;strokeColor=none;fillColor=none;align=left;verticalAlign=top;spacingLeft=4;spacingRight=4;overflow=hidden;rotatable=0;points=[[0,0.5],[1,0.5]];portConstraint=eastwest;whiteSpace=wrap;html=1;" vertex="1" parent="FtbCnX3Roro6FYzfa0a7-17">
          <mxGeometry y="78" width="140" height="26" as="geometry" />
        </mxCell>
        <mxCell id="FtbCnX3Roro6FYzfa0a7-21" value="" style="endArrow=block;startArrow=block;endFill=1;startFill=1;html=1;rounded=0;entryX=1;entryY=0.5;entryDx=0;entryDy=0;edgeStyle=elbowEdgeStyle;elbow=vertical;" edge="1" parent="WIyWlLk6GJQsqaUBKTNV-1" source="FtbCnX3Roro6FYzfa0a7-28" target="FtbCnX3Roro6FYzfa0a7-7">
          <mxGeometry width="160" relative="1" as="geometry">
            <mxPoint x="420" y="225" as="sourcePoint" />
            <mxPoint x="580" y="225" as="targetPoint" />
            <Array as="points">
              <mxPoint x="580" y="236" />
            </Array>
          </mxGeometry>
        </mxCell>
        <mxCell id="FtbCnX3Roro6FYzfa0a7-23" value="checkLocalTree" style="swimlane;fontStyle=1;align=center;verticalAlign=top;childLayout=stackLayout;horizontal=1;startSize=26;horizontalStack=0;resizeParent=1;resizeParentMax=0;resizeLast=0;collapsible=1;marginBottom=0;whiteSpace=wrap;html=1;" vertex="1" parent="WIyWlLk6GJQsqaUBKTNV-1">
          <mxGeometry x="400" y="-115" width="140" height="138" as="geometry" />
        </mxCell>
        <mxCell id="FtbCnX3Roro6FYzfa0a7-27" value="+ key: type" style="text;strokeColor=none;fillColor=none;align=left;verticalAlign=top;spacingLeft=4;spacingRight=4;overflow=hidden;rotatable=0;points=[[0,0.5],[1,0.5]];portConstraint=eastwest;whiteSpace=wrap;html=1;" vertex="1" parent="FtbCnX3Roro6FYzfa0a7-23">
          <mxGeometry y="26" width="140" height="26" as="geometry" />
        </mxCell>
        <mxCell id="FtbCnX3Roro6FYzfa0a7-28" value="+ result_true: type" style="text;strokeColor=none;fillColor=none;align=left;verticalAlign=top;spacingLeft=4;spacingRight=4;overflow=hidden;rotatable=0;points=[[0,0.5],[1,0.5]];portConstraint=eastwest;whiteSpace=wrap;html=1;" vertex="1" parent="FtbCnX3Roro6FYzfa0a7-23">
          <mxGeometry y="52" width="140" height="26" as="geometry" />
        </mxCell>
        <mxCell id="FtbCnX3Roro6FYzfa0a7-24" value="+ result_false: type" style="text;strokeColor=none;fillColor=none;align=left;verticalAlign=top;spacingLeft=4;spacingRight=4;overflow=hidden;rotatable=0;points=[[0,0.5],[1,0.5]];portConstraint=eastwest;whiteSpace=wrap;html=1;" vertex="1" parent="FtbCnX3Roro6FYzfa0a7-23">
          <mxGeometry y="78" width="140" height="26" as="geometry" />
        </mxCell>
        <mxCell id="FtbCnX3Roro6FYzfa0a7-25" value="" style="line;strokeWidth=1;fillColor=none;align=left;verticalAlign=middle;spacingTop=-1;spacingLeft=3;spacingRight=3;rotatable=0;labelPosition=right;points=[];portConstraint=eastwest;strokeColor=inherit;" vertex="1" parent="FtbCnX3Roro6FYzfa0a7-23">
          <mxGeometry y="104" width="140" height="8" as="geometry" />
        </mxCell>
        <mxCell id="FtbCnX3Roro6FYzfa0a7-26" value="return: Any" style="text;strokeColor=none;fillColor=none;align=left;verticalAlign=top;spacingLeft=4;spacingRight=4;overflow=hidden;rotatable=0;points=[[0,0.5],[1,0.5]];portConstraint=eastwest;whiteSpace=wrap;html=1;" vertex="1" parent="FtbCnX3Roro6FYzfa0a7-23">
          <mxGeometry y="112" width="140" height="26" as="geometry" />
        </mxCell>
        <mxCell id="FtbCnX3Roro6FYzfa0a7-29" value="" style="edgeStyle=elbowEdgeStyle;elbow=horizontal;endArrow=classic;html=1;curved=0;rounded=0;endSize=8;startSize=8;exitX=0.394;exitY=1.071;exitDx=0;exitDy=0;exitPerimeter=0;entryX=0;entryY=0.5;entryDx=0;entryDy=0;" edge="1" parent="WIyWlLk6GJQsqaUBKTNV-1" target="FtbCnX3Roro6FYzfa0a7-11">
          <mxGeometry width="50" height="50" relative="1" as="geometry">
            <mxPoint x="399.9999999999999" y="391.846" as="sourcePoint" />
            <mxPoint x="344.84000000000003" y="325" as="targetPoint" />
            <Array as="points">
              <mxPoint x="360" y="355" />
            </Array>
          </mxGeometry>
        </mxCell>
        <mxCell id="FtbCnX3Roro6FYzfa0a7-30" value="" style="endArrow=block;endFill=1;html=1;edgeStyle=orthogonalEdgeStyle;align=left;verticalAlign=top;rounded=0;exitX=1;exitY=0.5;exitDx=0;exitDy=0;" edge="1" parent="WIyWlLk6GJQsqaUBKTNV-1" source="FtbCnX3Roro6FYzfa0a7-16" target="FtbCnX3Roro6FYzfa0a7-8">
          <mxGeometry x="-1" relative="1" as="geometry">
            <mxPoint x="570" y="355" as="sourcePoint" />
            <mxPoint x="730" y="355" as="targetPoint" />
            <Array as="points">
              <mxPoint x="580" y="366" />
              <mxPoint x="580" y="182" />
            </Array>
          </mxGeometry>
        </mxCell>
        <mxCell id="FtbCnX3Roro6FYzfa0a7-33" value="" style="endArrow=block;endFill=1;html=1;edgeStyle=orthogonalEdgeStyle;align=left;verticalAlign=top;rounded=0;entryX=0.5;entryY=1.02;entryDx=0;entryDy=0;entryPerimeter=0;exitX=0.5;exitY=0;exitDx=0;exitDy=0;" edge="1" parent="WIyWlLk6GJQsqaUBKTNV-1" source="FtbCnX3Roro6FYzfa0a7-17" target="FtbCnX3Roro6FYzfa0a7-13">
          <mxGeometry x="-1" relative="1" as="geometry">
            <mxPoint x="470" y="485" as="sourcePoint" />
            <mxPoint x="465.65999999999997" y="425.04999999999995" as="targetPoint" />
            <Array as="points" />
          </mxGeometry>
        </mxCell>
        <mxCell id="FtbCnX3Roro6FYzfa0a7-37" value="" style="swimlane;startSize=0;dashed=1;dashPattern=8 8;" vertex="1" parent="WIyWlLk6GJQsqaUBKTNV-1">
          <mxGeometry x="250" y="-155" width="540" height="740" as="geometry" />
        </mxCell>
        <mxCell id="FtbCnX3Roro6FYzfa0a7-39" value="&lt;font style=&quot;font-size: 19px;&quot;&gt;tree.js&lt;/font&gt;" style="text;html=1;align=center;verticalAlign=middle;whiteSpace=wrap;rounded=0;" vertex="1" parent="FtbCnX3Roro6FYzfa0a7-37">
          <mxGeometry x="470" y="10" width="60" height="30" as="geometry" />
        </mxCell>
        <mxCell id="FtbCnX3Roro6FYzfa0a7-92" value="" style="swimlane;startSize=0;dashed=1;dashPattern=8 8;" vertex="1" parent="WIyWlLk6GJQsqaUBKTNV-1">
          <mxGeometry x="-620" y="140" width="560" height="420" as="geometry" />
        </mxCell>
        <mxCell id="FtbCnX3Roro6FYzfa0a7-93" value="&lt;font style=&quot;font-size: 19px;&quot;&gt;local.js&lt;/font&gt;" style="text;html=1;align=center;verticalAlign=middle;whiteSpace=wrap;rounded=0;" vertex="1" parent="FtbCnX3Roro6FYzfa0a7-92">
          <mxGeometry x="450" y="10" width="80" height="30" as="geometry" />
        </mxCell>
        <mxCell id="FtbCnX3Roro6FYzfa0a7-121" value="window.addEventListener" style="swimlane;fontStyle=0;childLayout=stackLayout;horizontal=1;startSize=26;fillColor=none;horizontalStack=0;resizeParent=1;resizeParentMax=0;resizeLast=0;collapsible=1;marginBottom=0;whiteSpace=wrap;html=1;" vertex="1" parent="FtbCnX3Roro6FYzfa0a7-92">
          <mxGeometry x="40" y="266" width="200" height="52" as="geometry" />
        </mxCell>
        <mxCell id="FtbCnX3Roro6FYzfa0a7-122" value="&lt;div style=&quot;text-align: center;&quot;&gt;beforeunload&lt;br&gt;&lt;/div&gt;" style="text;strokeColor=none;fillColor=none;align=left;verticalAlign=top;spacingLeft=4;spacingRight=4;overflow=hidden;rotatable=0;points=[[0,0.5],[1,0.5]];portConstraint=eastwest;whiteSpace=wrap;html=1;" vertex="1" parent="FtbCnX3Roro6FYzfa0a7-121">
          <mxGeometry y="26" width="200" height="26" as="geometry" />
        </mxCell>
        <mxCell id="FtbCnX3Roro6FYzfa0a7-127" value="getlocalStorage" style="swimlane;fontStyle=1;align=center;verticalAlign=top;childLayout=stackLayout;horizontal=1;startSize=26;horizontalStack=0;resizeParent=1;resizeParentMax=0;resizeLast=0;collapsible=1;marginBottom=0;whiteSpace=wrap;html=1;" vertex="1" parent="FtbCnX3Roro6FYzfa0a7-92">
          <mxGeometry x="300" y="146" width="200" height="86" as="geometry" />
        </mxCell>
        <mxCell id="FtbCnX3Roro6FYzfa0a7-128" value="+ name: str" style="text;strokeColor=none;fillColor=none;align=left;verticalAlign=top;spacingLeft=4;spacingRight=4;overflow=hidden;rotatable=0;points=[[0,0.5],[1,0.5]];portConstraint=eastwest;whiteSpace=wrap;html=1;" vertex="1" parent="FtbCnX3Roro6FYzfa0a7-127">
          <mxGeometry y="26" width="200" height="26" as="geometry" />
        </mxCell>
        <mxCell id="FtbCnX3Roro6FYzfa0a7-129" value="" style="line;strokeWidth=1;fillColor=none;align=left;verticalAlign=middle;spacingTop=-1;spacingLeft=3;spacingRight=3;rotatable=0;labelPosition=right;points=[];portConstraint=eastwest;strokeColor=inherit;" vertex="1" parent="FtbCnX3Roro6FYzfa0a7-127">
          <mxGeometry y="52" width="200" height="8" as="geometry" />
        </mxCell>
        <mxCell id="FtbCnX3Roro6FYzfa0a7-130" value="return: dict" style="text;strokeColor=none;fillColor=none;align=left;verticalAlign=top;spacingLeft=4;spacingRight=4;overflow=hidden;rotatable=0;points=[[0,0.5],[1,0.5]];portConstraint=eastwest;whiteSpace=wrap;html=1;" vertex="1" parent="FtbCnX3Roro6FYzfa0a7-127">
          <mxGeometry y="60" width="200" height="26" as="geometry" />
        </mxCell>
        <mxCell id="FtbCnX3Roro6FYzfa0a7-67" value="window.addEventListener" style="swimlane;fontStyle=0;childLayout=stackLayout;horizontal=1;startSize=26;fillColor=none;horizontalStack=0;resizeParent=1;resizeParentMax=0;resizeLast=0;collapsible=1;marginBottom=0;whiteSpace=wrap;html=1;" vertex="1" parent="FtbCnX3Roro6FYzfa0a7-92">
          <mxGeometry x="300" y="266" width="200" height="52" as="geometry" />
        </mxCell>
        <mxCell id="FtbCnX3Roro6FYzfa0a7-68" value="&lt;div style=&quot;text-align: center;&quot;&gt;load&lt;br&gt;&lt;/div&gt;" style="text;strokeColor=none;fillColor=none;align=left;verticalAlign=top;spacingLeft=4;spacingRight=4;overflow=hidden;rotatable=0;points=[[0,0.5],[1,0.5]];portConstraint=eastwest;whiteSpace=wrap;html=1;" vertex="1" parent="FtbCnX3Roro6FYzfa0a7-67">
          <mxGeometry y="26" width="200" height="26" as="geometry" />
        </mxCell>
        <mxCell id="FtbCnX3Roro6FYzfa0a7-83" value="setlocalStorage" style="swimlane;fontStyle=1;align=center;verticalAlign=top;childLayout=stackLayout;horizontal=1;startSize=26;horizontalStack=0;resizeParent=1;resizeParentMax=0;resizeLast=0;collapsible=1;marginBottom=0;whiteSpace=wrap;html=1;" vertex="1" parent="FtbCnX3Roro6FYzfa0a7-92">
          <mxGeometry x="40" y="146" width="200" height="78" as="geometry" />
        </mxCell>
        <mxCell id="FtbCnX3Roro6FYzfa0a7-84" value="+ name: str" style="text;strokeColor=none;fillColor=none;align=left;verticalAlign=top;spacingLeft=4;spacingRight=4;overflow=hidden;rotatable=0;points=[[0,0.5],[1,0.5]];portConstraint=eastwest;whiteSpace=wrap;html=1;" vertex="1" parent="FtbCnX3Roro6FYzfa0a7-83">
          <mxGeometry y="26" width="200" height="26" as="geometry" />
        </mxCell>
        <mxCell id="FtbCnX3Roro6FYzfa0a7-85" value="+ data: dict" style="text;strokeColor=none;fillColor=none;align=left;verticalAlign=top;spacingLeft=4;spacingRight=4;overflow=hidden;rotatable=0;points=[[0,0.5],[1,0.5]];portConstraint=eastwest;whiteSpace=wrap;html=1;" vertex="1" parent="FtbCnX3Roro6FYzfa0a7-83">
          <mxGeometry y="52" width="200" height="26" as="geometry" />
        </mxCell>
        <mxCell id="FtbCnX3Roro6FYzfa0a7-82" value="" style="endArrow=none;startArrow=block;endFill=0;startFill=1;html=1;rounded=0;edgeStyle=elbowEdgeStyle;elbow=vertical;entryX=0.5;entryY=0;entryDx=0;entryDy=0;exitX=0.498;exitY=1.038;exitDx=0;exitDy=0;exitPerimeter=0;" edge="1" parent="FtbCnX3Roro6FYzfa0a7-92" source="FtbCnX3Roro6FYzfa0a7-85" target="FtbCnX3Roro6FYzfa0a7-121">
          <mxGeometry width="160" relative="1" as="geometry">
            <mxPoint x="120" y="406" as="sourcePoint" />
            <mxPoint x="240" y="311.0000000000002" as="targetPoint" />
            <Array as="points">
              <mxPoint x="180" y="246" />
            </Array>
          </mxGeometry>
        </mxCell>
        <mxCell id="FtbCnX3Roro6FYzfa0a7-131" value="" style="endArrow=classic;startArrow=block;endFill=1;startFill=1;html=1;rounded=0;edgeStyle=elbowEdgeStyle;elbow=vertical;entryX=0.5;entryY=0;entryDx=0;entryDy=0;exitX=0.5;exitY=0.999;exitDx=0;exitDy=0;exitPerimeter=0;" edge="1" parent="FtbCnX3Roro6FYzfa0a7-92" source="FtbCnX3Roro6FYzfa0a7-130" target="FtbCnX3Roro6FYzfa0a7-67">
          <mxGeometry width="160" relative="1" as="geometry">
            <mxPoint x="400" y="256" as="sourcePoint" />
            <mxPoint x="400" y="316" as="targetPoint" />
            <Array as="points">
              <mxPoint x="399.77" y="277" />
            </Array>
          </mxGeometry>
        </mxCell>
        <mxCell id="FtbCnX3Roro6FYzfa0a7-134" value="globalСonditionTree: dict" style="html=1;whiteSpace=wrap;" vertex="1" parent="FtbCnX3Roro6FYzfa0a7-92">
          <mxGeometry x="170" y="66" width="210" height="50" as="geometry" />
        </mxCell>
        <mxCell id="FtbCnX3Roro6FYzfa0a7-136" value="" style="endArrow=none;startArrow=block;endFill=0;startFill=1;html=1;rounded=0;edgeStyle=elbowEdgeStyle;elbow=vertical;exitX=0;exitY=0.5;exitDx=0;exitDy=0;entryX=0.5;entryY=0;entryDx=0;entryDy=0;" edge="1" parent="FtbCnX3Roro6FYzfa0a7-92" source="FtbCnX3Roro6FYzfa0a7-134" target="FtbCnX3Roro6FYzfa0a7-83">
          <mxGeometry width="160" relative="1" as="geometry">
            <mxPoint x="260.00000000000006" y="117.09999999999997" as="sourcePoint" />
            <mxPoint x="260.43" y="149" as="targetPoint" />
            <Array as="points">
              <mxPoint x="160" y="91" />
            </Array>
          </mxGeometry>
        </mxCell>
        <mxCell id="FtbCnX3Roro6FYzfa0a7-137" value="" style="endArrow=none;startArrow=block;endFill=0;startFill=1;html=1;rounded=0;edgeStyle=elbowEdgeStyle;elbow=vertical;exitX=0.5;exitY=0;exitDx=0;exitDy=0;entryX=1;entryY=0.5;entryDx=0;entryDy=0;" edge="1" parent="FtbCnX3Roro6FYzfa0a7-92" source="FtbCnX3Roro6FYzfa0a7-127" target="FtbCnX3Roro6FYzfa0a7-134">
          <mxGeometry width="160" relative="1" as="geometry">
            <mxPoint x="270.00000000000006" y="127.09999999999997" as="sourcePoint" />
            <mxPoint x="186" y="157" as="targetPoint" />
            <Array as="points">
              <mxPoint x="390" y="91" />
            </Array>
          </mxGeometry>
        </mxCell>
        <mxCell id="FtbCnX3Roro6FYzfa0a7-108" value="document.addEventListener&amp;nbsp;" style="swimlane;fontStyle=0;childLayout=stackLayout;horizontal=1;startSize=26;fillColor=none;horizontalStack=0;resizeParent=1;resizeParentMax=0;resizeLast=0;collapsible=1;marginBottom=0;whiteSpace=wrap;html=1;" vertex="1" parent="WIyWlLk6GJQsqaUBKTNV-1">
          <mxGeometry x="-530" y="950" width="200" height="156" as="geometry" />
        </mxCell>
        <mxCell id="FtbCnX3Roro6FYzfa0a7-109" value="&lt;div style=&quot;text-align: center;&quot;&gt;&lt;span style=&quot;background-color: initial;&quot;&gt;+ &lt;/span&gt;&lt;span style=&quot;background-color: initial;&quot;&gt;DOMContentLoaded&lt;/span&gt;&lt;span style=&quot;background-color: initial;&quot;&gt;: type&lt;/span&gt;&lt;/div&gt;" style="text;strokeColor=none;fillColor=none;align=left;verticalAlign=top;spacingLeft=4;spacingRight=4;overflow=hidden;rotatable=0;points=[[0,0.5],[1,0.5]];portConstraint=eastwest;whiteSpace=wrap;html=1;" vertex="1" parent="FtbCnX3Roro6FYzfa0a7-108">
          <mxGeometry y="26" width="200" height="26" as="geometry" />
        </mxCell>
        <mxCell id="FtbCnX3Roro6FYzfa0a7-110" value="+ id: type" style="text;strokeColor=none;fillColor=none;align=left;verticalAlign=top;spacingLeft=4;spacingRight=4;overflow=hidden;rotatable=0;points=[[0,0.5],[1,0.5]];portConstraint=eastwest;whiteSpace=wrap;html=1;" vertex="1" parent="FtbCnX3Roro6FYzfa0a7-108">
          <mxGeometry y="52" width="200" height="26" as="geometry" />
        </mxCell>
        <mxCell id="FtbCnX3Roro6FYzfa0a7-111" value="+&amp;nbsp;&lt;span style=&quot;text-align: center;&quot;&gt;parent_id&lt;/span&gt;: type" style="text;strokeColor=none;fillColor=none;align=left;verticalAlign=top;spacingLeft=4;spacingRight=4;overflow=hidden;rotatable=0;points=[[0,0.5],[1,0.5]];portConstraint=eastwest;whiteSpace=wrap;html=1;" vertex="1" parent="FtbCnX3Roro6FYzfa0a7-108">
          <mxGeometry y="78" width="200" height="26" as="geometry" />
        </mxCell>
        <mxCell id="FtbCnX3Roro6FYzfa0a7-112" value="+&amp;nbsp;&lt;span style=&quot;text-align: center;&quot;&gt;text&lt;/span&gt;: type" style="text;strokeColor=none;fillColor=none;align=left;verticalAlign=top;spacingLeft=4;spacingRight=4;overflow=hidden;rotatable=0;points=[[0,0.5],[1,0.5]];portConstraint=eastwest;whiteSpace=wrap;html=1;" vertex="1" parent="FtbCnX3Roro6FYzfa0a7-108">
          <mxGeometry y="104" width="200" height="26" as="geometry" />
        </mxCell>
        <mxCell id="FtbCnX3Roro6FYzfa0a7-113" value="+&amp;nbsp;&lt;span style=&quot;text-align: center;&quot;&gt;folder&lt;/span&gt;: type" style="text;strokeColor=none;fillColor=none;align=left;verticalAlign=top;spacingLeft=4;spacingRight=4;overflow=hidden;rotatable=0;points=[[0,0.5],[1,0.5]];portConstraint=eastwest;whiteSpace=wrap;html=1;" vertex="1" parent="FtbCnX3Roro6FYzfa0a7-108">
          <mxGeometry y="130" width="200" height="26" as="geometry" />
        </mxCell>
        <mxCell id="FtbCnX3Roro6FYzfa0a7-114" value="" style="endArrow=none;startArrow=classic;endFill=0;startFill=1;html=1;rounded=0;entryX=0.489;entryY=0.001;entryDx=0;entryDy=0;edgeStyle=elbowEdgeStyle;elbow=vertical;entryPerimeter=0;exitX=0.485;exitY=1.054;exitDx=0;exitDy=0;exitPerimeter=0;" edge="1" parent="WIyWlLk6GJQsqaUBKTNV-1" source="FtbCnX3Roro6FYzfa0a7-118" target="FtbCnX3Roro6FYzfa0a7-108">
          <mxGeometry width="160" relative="1" as="geometry">
            <mxPoint x="-450" y="1110" as="sourcePoint" />
            <mxPoint x="-290" y="1110" as="targetPoint" />
            <Array as="points">
              <mxPoint x="-430" y="910" />
            </Array>
          </mxGeometry>
        </mxCell>
        <mxCell id="FtbCnX3Roro6FYzfa0a7-115" value="block_visible" style="swimlane;fontStyle=1;align=center;verticalAlign=top;childLayout=stackLayout;horizontal=1;startSize=26;horizontalStack=0;resizeParent=1;resizeParentMax=0;resizeLast=0;collapsible=1;marginBottom=0;whiteSpace=wrap;html=1;" vertex="1" parent="WIyWlLk6GJQsqaUBKTNV-1">
          <mxGeometry x="-530" y="770" width="200" height="104" as="geometry" />
        </mxCell>
        <mxCell id="FtbCnX3Roro6FYzfa0a7-116" value="+ block_2: type" style="text;strokeColor=none;fillColor=none;align=left;verticalAlign=top;spacingLeft=4;spacingRight=4;overflow=hidden;rotatable=0;points=[[0,0.5],[1,0.5]];portConstraint=eastwest;whiteSpace=wrap;html=1;" vertex="1" parent="FtbCnX3Roro6FYzfa0a7-115">
          <mxGeometry y="26" width="200" height="26" as="geometry" />
        </mxCell>
        <mxCell id="FtbCnX3Roro6FYzfa0a7-117" value="+ block_3: type" style="text;strokeColor=none;fillColor=none;align=left;verticalAlign=top;spacingLeft=4;spacingRight=4;overflow=hidden;rotatable=0;points=[[0,0.5],[1,0.5]];portConstraint=eastwest;whiteSpace=wrap;html=1;" vertex="1" parent="FtbCnX3Roro6FYzfa0a7-115">
          <mxGeometry y="52" width="200" height="26" as="geometry" />
        </mxCell>
        <mxCell id="FtbCnX3Roro6FYzfa0a7-118" value="+ block_4: type" style="text;strokeColor=none;fillColor=none;align=left;verticalAlign=top;spacingLeft=4;spacingRight=4;overflow=hidden;rotatable=0;points=[[0,0.5],[1,0.5]];portConstraint=eastwest;whiteSpace=wrap;html=1;" vertex="1" parent="FtbCnX3Roro6FYzfa0a7-115">
          <mxGeometry y="78" width="200" height="26" as="geometry" />
        </mxCell>
        <mxCell id="FtbCnX3Roro6FYzfa0a7-119" value="" style="swimlane;startSize=0;dashed=1;dashPattern=8 8;" vertex="1" parent="WIyWlLk6GJQsqaUBKTNV-1">
          <mxGeometry x="-620" y="730" width="540" height="420" as="geometry" />
        </mxCell>
        <mxCell id="FtbCnX3Roro6FYzfa0a7-120" value="&lt;span style=&quot;font-size: 19px;&quot;&gt;sidebar.js&lt;/span&gt;" style="text;html=1;align=center;verticalAlign=middle;whiteSpace=wrap;rounded=0;" vertex="1" parent="FtbCnX3Roro6FYzfa0a7-119">
          <mxGeometry x="450" y="10" width="80" height="30" as="geometry" />
        </mxCell>
        <mxCell id="FtbCnX3Roro6FYzfa0a7-219" value="" style="swimlane;startSize=0;dashed=1;dashPattern=8 8;" vertex="1" parent="WIyWlLk6GJQsqaUBKTNV-1">
          <mxGeometry x="890" y="140" width="610" height="740" as="geometry" />
        </mxCell>
        <mxCell id="FtbCnX3Roro6FYzfa0a7-220" value="&lt;font style=&quot;font-size: 19px;&quot;&gt;menu_contex.js&lt;/font&gt;" style="text;html=1;align=center;verticalAlign=middle;whiteSpace=wrap;rounded=0;" vertex="1" parent="FtbCnX3Roro6FYzfa0a7-219">
          <mxGeometry x="460" y="10" width="140" height="30" as="geometry" />
        </mxCell>
        <mxCell id="FtbCnX3Roro6FYzfa0a7-205" value="menu_click" style="swimlane;fontStyle=0;childLayout=stackLayout;horizontal=1;startSize=26;fillColor=none;horizontalStack=0;resizeParent=1;resizeParentMax=0;resizeLast=0;collapsible=1;marginBottom=0;whiteSpace=wrap;html=1;" vertex="1" parent="FtbCnX3Roro6FYzfa0a7-219">
          <mxGeometry x="10" y="380" width="140" height="104" as="geometry" />
        </mxCell>
        <mxCell id="FtbCnX3Roro6FYzfa0a7-206" value="+&amp;nbsp;&lt;span style=&quot;text-align: center;&quot;&gt;method&lt;/span&gt;: type" style="text;strokeColor=none;fillColor=none;align=left;verticalAlign=top;spacingLeft=4;spacingRight=4;overflow=hidden;rotatable=0;points=[[0,0.5],[1,0.5]];portConstraint=eastwest;whiteSpace=wrap;html=1;" vertex="1" parent="FtbCnX3Roro6FYzfa0a7-205">
          <mxGeometry y="26" width="140" height="26" as="geometry" />
        </mxCell>
        <mxCell id="FtbCnX3Roro6FYzfa0a7-207" value="+&amp;nbsp;&lt;span style=&quot;text-align: center;&quot;&gt;url&lt;/span&gt;: type" style="text;strokeColor=none;fillColor=none;align=left;verticalAlign=top;spacingLeft=4;spacingRight=4;overflow=hidden;rotatable=0;points=[[0,0.5],[1,0.5]];portConstraint=eastwest;whiteSpace=wrap;html=1;" vertex="1" parent="FtbCnX3Roro6FYzfa0a7-205">
          <mxGeometry y="52" width="140" height="26" as="geometry" />
        </mxCell>
        <mxCell id="FtbCnX3Roro6FYzfa0a7-208" value="+&amp;nbsp;&lt;span style=&quot;text-align: center;&quot;&gt;data&lt;/span&gt;: type" style="text;strokeColor=none;fillColor=none;align=left;verticalAlign=top;spacingLeft=4;spacingRight=4;overflow=hidden;rotatable=0;points=[[0,0.5],[1,0.5]];portConstraint=eastwest;whiteSpace=wrap;html=1;" vertex="1" parent="FtbCnX3Roro6FYzfa0a7-205">
          <mxGeometry y="78" width="140" height="26" as="geometry" />
        </mxCell>
        <mxCell id="FtbCnX3Roro6FYzfa0a7-200" value="search" style="swimlane;fontStyle=0;childLayout=stackLayout;horizontal=1;startSize=26;fillColor=none;horizontalStack=0;resizeParent=1;resizeParentMax=0;resizeLast=0;collapsible=1;marginBottom=0;whiteSpace=wrap;html=1;" vertex="1" parent="FtbCnX3Roro6FYzfa0a7-219">
          <mxGeometry x="210" y="670" width="160" height="52" as="geometry" />
        </mxCell>
        <mxCell id="FtbCnX3Roro6FYzfa0a7-237" value="un_roll" style="swimlane;fontStyle=0;childLayout=stackLayout;horizontal=1;startSize=26;fillColor=none;horizontalStack=0;resizeParent=1;resizeParentMax=0;resizeLast=0;collapsible=1;marginBottom=0;whiteSpace=wrap;html=1;" vertex="1" parent="FtbCnX3Roro6FYzfa0a7-219">
          <mxGeometry x="210" y="599" width="160" height="52" as="geometry" />
        </mxCell>
        <mxCell id="FtbCnX3Roro6FYzfa0a7-236" value="roll_up" style="swimlane;fontStyle=0;childLayout=stackLayout;horizontal=1;startSize=26;fillColor=none;horizontalStack=0;resizeParent=1;resizeParentMax=0;resizeLast=0;collapsible=1;marginBottom=0;whiteSpace=wrap;html=1;" vertex="1" parent="FtbCnX3Roro6FYzfa0a7-219">
          <mxGeometry x="210" y="530" width="160" height="52" as="geometry" />
        </mxCell>
        <mxCell id="FtbCnX3Roro6FYzfa0a7-252" value="new_folder" style="swimlane;fontStyle=0;childLayout=stackLayout;horizontal=1;startSize=26;fillColor=none;horizontalStack=0;resizeParent=1;resizeParentMax=0;resizeLast=0;collapsible=1;marginBottom=0;whiteSpace=wrap;html=1;" vertex="1" parent="FtbCnX3Roro6FYzfa0a7-219">
          <mxGeometry x="210" y="460" width="160" height="52" as="geometry" />
        </mxCell>
        <mxCell id="FtbCnX3Roro6FYzfa0a7-253" value="new_label" style="swimlane;fontStyle=0;childLayout=stackLayout;horizontal=1;startSize=26;fillColor=none;horizontalStack=0;resizeParent=1;resizeParentMax=0;resizeLast=0;collapsible=1;marginBottom=0;whiteSpace=wrap;html=1;" vertex="1" parent="FtbCnX3Roro6FYzfa0a7-219">
          <mxGeometry x="210" y="390" width="160" height="52" as="geometry" />
        </mxCell>
        <mxCell id="FtbCnX3Roro6FYzfa0a7-254" value="delet" style="swimlane;fontStyle=0;childLayout=stackLayout;horizontal=1;startSize=26;fillColor=none;horizontalStack=0;resizeParent=1;resizeParentMax=0;resizeLast=0;collapsible=1;marginBottom=0;whiteSpace=wrap;html=1;" vertex="1" parent="FtbCnX3Roro6FYzfa0a7-219">
          <mxGeometry x="210" y="110" width="160" height="52" as="geometry" />
        </mxCell>
        <mxCell id="FtbCnX3Roro6FYzfa0a7-255" value="rename" style="swimlane;fontStyle=0;childLayout=stackLayout;horizontal=1;startSize=26;fillColor=none;horizontalStack=0;resizeParent=1;resizeParentMax=0;resizeLast=0;collapsible=1;marginBottom=0;whiteSpace=wrap;html=1;" vertex="1" parent="FtbCnX3Roro6FYzfa0a7-219">
          <mxGeometry x="210" y="180" width="160" height="52" as="geometry" />
        </mxCell>
        <mxCell id="FtbCnX3Roro6FYzfa0a7-256" value="insert" style="swimlane;fontStyle=0;childLayout=stackLayout;horizontal=1;startSize=26;fillColor=none;horizontalStack=0;resizeParent=1;resizeParentMax=0;resizeLast=0;collapsible=1;marginBottom=0;whiteSpace=wrap;html=1;" vertex="1" parent="FtbCnX3Roro6FYzfa0a7-219">
          <mxGeometry x="210" y="249" width="160" height="52" as="geometry" />
        </mxCell>
        <mxCell id="FtbCnX3Roro6FYzfa0a7-257" value="copy" style="swimlane;fontStyle=0;childLayout=stackLayout;horizontal=1;startSize=26;fillColor=none;horizontalStack=0;resizeParent=1;resizeParentMax=0;resizeLast=0;collapsible=1;marginBottom=0;whiteSpace=wrap;html=1;" vertex="1" parent="FtbCnX3Roro6FYzfa0a7-219">
          <mxGeometry x="210" y="320" width="160" height="52" as="geometry" />
        </mxCell>
        <mxCell id="FtbCnX3Roro6FYzfa0a7-228" value="roll" style="swimlane;fontStyle=0;childLayout=stackLayout;horizontal=1;startSize=26;fillColor=none;horizontalStack=0;resizeParent=1;resizeParentMax=0;resizeLast=0;collapsible=1;marginBottom=0;whiteSpace=wrap;html=1;" vertex="1" parent="FtbCnX3Roro6FYzfa0a7-219">
          <mxGeometry x="420" y="540" width="160" height="104" as="geometry" />
        </mxCell>
        <mxCell id="FtbCnX3Roro6FYzfa0a7-229" value="+&amp;nbsp;&lt;span style=&quot;font-weight: 700; text-align: center; text-wrap: nowrap;&quot;&gt;name_old_png&lt;/span&gt;: type" style="text;strokeColor=none;fillColor=none;align=left;verticalAlign=top;spacingLeft=4;spacingRight=4;overflow=hidden;rotatable=0;points=[[0,0.5],[1,0.5]];portConstraint=eastwest;whiteSpace=wrap;html=1;" vertex="1" parent="FtbCnX3Roro6FYzfa0a7-228">
          <mxGeometry y="26" width="160" height="26" as="geometry" />
        </mxCell>
        <mxCell id="FtbCnX3Roro6FYzfa0a7-230" value="+&amp;nbsp;&lt;span style=&quot;font-weight: 700; text-align: center; text-wrap: nowrap;&quot;&gt;name_new_png&lt;/span&gt;: type" style="text;strokeColor=none;fillColor=none;align=left;verticalAlign=top;spacingLeft=4;spacingRight=4;overflow=hidden;rotatable=0;points=[[0,0.5],[1,0.5]];portConstraint=eastwest;whiteSpace=wrap;html=1;" vertex="1" parent="FtbCnX3Roro6FYzfa0a7-228">
          <mxGeometry y="52" width="160" height="26" as="geometry" />
        </mxCell>
        <mxCell id="FtbCnX3Roro6FYzfa0a7-231" value="+&amp;nbsp;&lt;span style=&quot;font-weight: 700; text-align: center; text-wrap: nowrap;&quot;&gt;element_display&lt;/span&gt;: type" style="text;strokeColor=none;fillColor=none;align=left;verticalAlign=top;spacingLeft=4;spacingRight=4;overflow=hidden;rotatable=0;points=[[0,0.5],[1,0.5]];portConstraint=eastwest;whiteSpace=wrap;html=1;" vertex="1" parent="FtbCnX3Roro6FYzfa0a7-228">
          <mxGeometry y="78" width="160" height="26" as="geometry" />
        </mxCell>
        <mxCell id="FtbCnX3Roro6FYzfa0a7-258" value="" style="endArrow=block;startArrow=none;endFill=1;startFill=0;html=1;rounded=0;entryX=-0.001;entryY=0.457;entryDx=0;entryDy=0;entryPerimeter=0;" edge="1" parent="FtbCnX3Roro6FYzfa0a7-219" target="FtbCnX3Roro6FYzfa0a7-231">
          <mxGeometry width="160" relative="1" as="geometry">
            <mxPoint x="370" y="630" as="sourcePoint" />
            <mxPoint x="690" y="460" as="targetPoint" />
          </mxGeometry>
        </mxCell>
        <mxCell id="FtbCnX3Roro6FYzfa0a7-259" value="" style="endArrow=block;startArrow=none;endFill=1;startFill=0;html=1;rounded=0;entryX=-0.002;entryY=0.103;entryDx=0;entryDy=0;entryPerimeter=0;exitX=1;exitY=0.75;exitDx=0;exitDy=0;" edge="1" parent="FtbCnX3Roro6FYzfa0a7-219" source="FtbCnX3Roro6FYzfa0a7-236" target="FtbCnX3Roro6FYzfa0a7-229">
          <mxGeometry width="160" relative="1" as="geometry">
            <mxPoint x="380" y="640" as="sourcePoint" />
            <mxPoint x="430" y="640" as="targetPoint" />
          </mxGeometry>
        </mxCell>
        <mxCell id="FtbCnX3Roro6FYzfa0a7-260" value="" style="endArrow=block;endFill=1;html=1;edgeStyle=orthogonalEdgeStyle;align=left;verticalAlign=top;rounded=0;entryX=0;entryY=0.75;entryDx=0;entryDy=0;exitX=0.25;exitY=0;exitDx=0;exitDy=0;" edge="1" parent="FtbCnX3Roro6FYzfa0a7-219" source="FtbCnX3Roro6FYzfa0a7-205" target="FtbCnX3Roro6FYzfa0a7-254">
          <mxGeometry x="-1" relative="1" as="geometry">
            <mxPoint x="20" y="430" as="sourcePoint" />
            <mxPoint x="180" y="430" as="targetPoint" />
          </mxGeometry>
        </mxCell>
        <mxCell id="FtbCnX3Roro6FYzfa0a7-262" value="" style="endArrow=block;endFill=1;html=1;edgeStyle=orthogonalEdgeStyle;align=left;verticalAlign=top;rounded=0;entryX=0;entryY=0.5;entryDx=0;entryDy=0;exitX=0.368;exitY=-0.009;exitDx=0;exitDy=0;exitPerimeter=0;" edge="1" parent="FtbCnX3Roro6FYzfa0a7-219" source="FtbCnX3Roro6FYzfa0a7-205" target="FtbCnX3Roro6FYzfa0a7-255">
          <mxGeometry x="-1" relative="1" as="geometry">
            <mxPoint x="20" y="430" as="sourcePoint" />
            <mxPoint x="180" y="430" as="targetPoint" />
          </mxGeometry>
        </mxCell>
        <mxCell id="FtbCnX3Roro6FYzfa0a7-264" value="" style="endArrow=block;endFill=1;html=1;edgeStyle=orthogonalEdgeStyle;align=left;verticalAlign=top;rounded=0;entryX=0;entryY=0.5;entryDx=0;entryDy=0;exitX=0.5;exitY=0;exitDx=0;exitDy=0;" edge="1" parent="FtbCnX3Roro6FYzfa0a7-219" source="FtbCnX3Roro6FYzfa0a7-205" target="FtbCnX3Roro6FYzfa0a7-256">
          <mxGeometry x="-1" relative="1" as="geometry">
            <mxPoint x="80" y="420" as="sourcePoint" />
            <mxPoint x="240" y="420" as="targetPoint" />
          </mxGeometry>
        </mxCell>
        <mxCell id="FtbCnX3Roro6FYzfa0a7-266" value="" style="endArrow=block;endFill=1;html=1;edgeStyle=orthogonalEdgeStyle;align=left;verticalAlign=top;rounded=0;entryX=0;entryY=0.5;entryDx=0;entryDy=0;exitX=0.612;exitY=0.005;exitDx=0;exitDy=0;exitPerimeter=0;" edge="1" parent="FtbCnX3Roro6FYzfa0a7-219" source="FtbCnX3Roro6FYzfa0a7-205" target="FtbCnX3Roro6FYzfa0a7-257">
          <mxGeometry x="-1" relative="1" as="geometry">
            <mxPoint x="80" y="330" as="sourcePoint" />
            <mxPoint x="240" y="330" as="targetPoint" />
            <mxPoint as="offset" />
          </mxGeometry>
        </mxCell>
        <mxCell id="FtbCnX3Roro6FYzfa0a7-268" value="" style="endArrow=block;endFill=1;html=1;edgeStyle=orthogonalEdgeStyle;align=left;verticalAlign=top;rounded=0;exitX=0.326;exitY=1.022;exitDx=0;exitDy=0;exitPerimeter=0;entryX=0;entryY=0.435;entryDx=0;entryDy=0;entryPerimeter=0;" edge="1" parent="FtbCnX3Roro6FYzfa0a7-219" source="FtbCnX3Roro6FYzfa0a7-208" target="FtbCnX3Roro6FYzfa0a7-200">
          <mxGeometry x="-1" relative="1" as="geometry">
            <mxPoint x="70" y="520" as="sourcePoint" />
            <mxPoint x="230" y="520" as="targetPoint" />
            <Array as="points" />
          </mxGeometry>
        </mxCell>
        <mxCell id="FtbCnX3Roro6FYzfa0a7-270" value="" style="endArrow=block;endFill=1;html=1;edgeStyle=orthogonalEdgeStyle;align=left;verticalAlign=top;rounded=0;exitX=0.435;exitY=1.008;exitDx=0;exitDy=0;exitPerimeter=0;entryX=0;entryY=0.5;entryDx=0;entryDy=0;" edge="1" parent="FtbCnX3Roro6FYzfa0a7-219" source="FtbCnX3Roro6FYzfa0a7-208" target="FtbCnX3Roro6FYzfa0a7-237">
          <mxGeometry x="-1" relative="1" as="geometry">
            <mxPoint x="160" y="670" as="sourcePoint" />
            <mxPoint x="320" y="670" as="targetPoint" />
          </mxGeometry>
        </mxCell>
        <mxCell id="FtbCnX3Roro6FYzfa0a7-272" value="" style="endArrow=block;endFill=1;html=1;edgeStyle=orthogonalEdgeStyle;align=left;verticalAlign=top;rounded=0;exitX=0.553;exitY=1.041;exitDx=0;exitDy=0;exitPerimeter=0;entryX=0;entryY=0.5;entryDx=0;entryDy=0;" edge="1" parent="FtbCnX3Roro6FYzfa0a7-219" source="FtbCnX3Roro6FYzfa0a7-208" target="FtbCnX3Roro6FYzfa0a7-236">
          <mxGeometry x="-1" relative="1" as="geometry">
            <mxPoint x="160" y="540" as="sourcePoint" />
            <mxPoint x="320" y="540" as="targetPoint" />
            <Array as="points">
              <mxPoint x="87" y="556" />
            </Array>
          </mxGeometry>
        </mxCell>
        <mxCell id="FtbCnX3Roro6FYzfa0a7-274" value="" style="endArrow=block;endFill=1;html=1;edgeStyle=orthogonalEdgeStyle;align=left;verticalAlign=top;rounded=0;exitX=0.663;exitY=0.975;exitDx=0;exitDy=0;exitPerimeter=0;entryX=0;entryY=0.75;entryDx=0;entryDy=0;" edge="1" parent="FtbCnX3Roro6FYzfa0a7-219" source="FtbCnX3Roro6FYzfa0a7-208" target="FtbCnX3Roro6FYzfa0a7-252">
          <mxGeometry x="-1" relative="1" as="geometry">
            <mxPoint x="160" y="540" as="sourcePoint" />
            <mxPoint x="320" y="540" as="targetPoint" />
          </mxGeometry>
        </mxCell>
        <mxCell id="FtbCnX3Roro6FYzfa0a7-276" value="" style="endArrow=block;endFill=1;html=1;edgeStyle=orthogonalEdgeStyle;align=left;verticalAlign=top;rounded=0;exitX=1.004;exitY=0.377;exitDx=0;exitDy=0;entryX=0;entryY=0.5;entryDx=0;entryDy=0;exitPerimeter=0;" edge="1" parent="FtbCnX3Roro6FYzfa0a7-219" source="FtbCnX3Roro6FYzfa0a7-206" target="FtbCnX3Roro6FYzfa0a7-253">
          <mxGeometry x="-1" relative="1" as="geometry">
            <mxPoint x="160" y="450" as="sourcePoint" />
            <mxPoint x="320" y="450" as="targetPoint" />
          </mxGeometry>
        </mxCell>
        <mxCell id="FtbCnX3Roro6FYzfa0a7-278" value="inputDiv" style="swimlane;fontStyle=0;childLayout=stackLayout;horizontal=1;startSize=26;fillColor=none;horizontalStack=0;resizeParent=1;resizeParentMax=0;resizeLast=0;collapsible=1;marginBottom=0;whiteSpace=wrap;html=1;" vertex="1" parent="FtbCnX3Roro6FYzfa0a7-219">
          <mxGeometry x="420" y="657" width="160" height="78" as="geometry" />
        </mxCell>
        <mxCell id="FtbCnX3Roro6FYzfa0a7-279" value="&lt;div style=&quot;text-align: center;&quot;&gt;&lt;span style=&quot;background-color: initial;&quot;&gt;+ text_placeholder&lt;/span&gt;&lt;span style=&quot;background-color: initial;&quot;&gt;: type&lt;/span&gt;&lt;/div&gt;" style="text;strokeColor=none;fillColor=none;align=left;verticalAlign=top;spacingLeft=4;spacingRight=4;overflow=hidden;rotatable=0;points=[[0,0.5],[1,0.5]];portConstraint=eastwest;whiteSpace=wrap;html=1;" vertex="1" parent="FtbCnX3Roro6FYzfa0a7-278">
          <mxGeometry y="26" width="160" height="26" as="geometry" />
        </mxCell>
        <mxCell id="FtbCnX3Roro6FYzfa0a7-280" value="+ path_img: type" style="text;strokeColor=none;fillColor=none;align=left;verticalAlign=top;spacingLeft=4;spacingRight=4;overflow=hidden;rotatable=0;points=[[0,0.5],[1,0.5]];portConstraint=eastwest;whiteSpace=wrap;html=1;" vertex="1" parent="FtbCnX3Roro6FYzfa0a7-278">
          <mxGeometry y="52" width="160" height="26" as="geometry" />
        </mxCell>
        <mxCell id="FtbCnX3Roro6FYzfa0a7-210" value="ExchangeBuffer" style="swimlane;fontStyle=1;align=center;verticalAlign=top;childLayout=stackLayout;horizontal=1;startSize=26;horizontalStack=0;resizeParent=1;resizeParentMax=0;resizeLast=0;collapsible=1;marginBottom=0;whiteSpace=wrap;html=1;" vertex="1" parent="FtbCnX3Roro6FYzfa0a7-219">
          <mxGeometry x="420" y="260" width="140" height="60" as="geometry" />
        </mxCell>
        <mxCell id="FtbCnX3Roro6FYzfa0a7-214" value="" style="line;strokeWidth=1;fillColor=none;align=left;verticalAlign=middle;spacingTop=-1;spacingLeft=3;spacingRight=3;rotatable=0;labelPosition=right;points=[];portConstraint=eastwest;strokeColor=inherit;" vertex="1" parent="FtbCnX3Roro6FYzfa0a7-210">
          <mxGeometry y="26" width="140" height="8" as="geometry" />
        </mxCell>
        <mxCell id="FtbCnX3Roro6FYzfa0a7-215" value="return: Any" style="text;strokeColor=none;fillColor=none;align=left;verticalAlign=top;spacingLeft=4;spacingRight=4;overflow=hidden;rotatable=0;points=[[0,0.5],[1,0.5]];portConstraint=eastwest;whiteSpace=wrap;html=1;" vertex="1" parent="FtbCnX3Roro6FYzfa0a7-210">
          <mxGeometry y="34" width="140" height="26" as="geometry" />
        </mxCell>
        <mxCell id="FtbCnX3Roro6FYzfa0a7-194" value="createDivBlocks" style="swimlane;fontStyle=0;childLayout=stackLayout;horizontal=1;startSize=26;fillColor=none;horizontalStack=0;resizeParent=1;resizeParentMax=0;resizeLast=0;collapsible=1;marginBottom=0;whiteSpace=wrap;html=1;" vertex="1" parent="WIyWlLk6GJQsqaUBKTNV-1">
          <mxGeometry x="1790" y="180" width="140" height="156" as="geometry" />
        </mxCell>
        <mxCell id="FtbCnX3Roro6FYzfa0a7-195" value="+&amp;nbsp;&lt;span style=&quot;text-align: center;&quot;&gt;depth&lt;/span&gt;: type" style="text;strokeColor=none;fillColor=none;align=left;verticalAlign=top;spacingLeft=4;spacingRight=4;overflow=hidden;rotatable=0;points=[[0,0.5],[1,0.5]];portConstraint=eastwest;whiteSpace=wrap;html=1;" vertex="1" parent="FtbCnX3Roro6FYzfa0a7-194">
          <mxGeometry y="26" width="140" height="26" as="geometry" />
        </mxCell>
        <mxCell id="FtbCnX3Roro6FYzfa0a7-196" value="+ id: type" style="text;strokeColor=none;fillColor=none;align=left;verticalAlign=top;spacingLeft=4;spacingRight=4;overflow=hidden;rotatable=0;points=[[0,0.5],[1,0.5]];portConstraint=eastwest;whiteSpace=wrap;html=1;" vertex="1" parent="FtbCnX3Roro6FYzfa0a7-194">
          <mxGeometry y="52" width="140" height="26" as="geometry" />
        </mxCell>
        <mxCell id="FtbCnX3Roro6FYzfa0a7-197" value="+&amp;nbsp;&lt;span style=&quot;text-align: center;&quot;&gt;parent_id&lt;/span&gt;: type" style="text;strokeColor=none;fillColor=none;align=left;verticalAlign=top;spacingLeft=4;spacingRight=4;overflow=hidden;rotatable=0;points=[[0,0.5],[1,0.5]];portConstraint=eastwest;whiteSpace=wrap;html=1;" vertex="1" parent="FtbCnX3Roro6FYzfa0a7-194">
          <mxGeometry y="78" width="140" height="26" as="geometry" />
        </mxCell>
        <mxCell id="FtbCnX3Roro6FYzfa0a7-198" value="+&amp;nbsp;&lt;span style=&quot;text-align: center;&quot;&gt;text&lt;/span&gt;: type" style="text;strokeColor=none;fillColor=none;align=left;verticalAlign=top;spacingLeft=4;spacingRight=4;overflow=hidden;rotatable=0;points=[[0,0.5],[1,0.5]];portConstraint=eastwest;whiteSpace=wrap;html=1;" vertex="1" parent="FtbCnX3Roro6FYzfa0a7-194">
          <mxGeometry y="104" width="140" height="26" as="geometry" />
        </mxCell>
        <mxCell id="FtbCnX3Roro6FYzfa0a7-199" value="+&amp;nbsp;&lt;span style=&quot;text-align: center;&quot;&gt;folder&lt;/span&gt;: type" style="text;strokeColor=none;fillColor=none;align=left;verticalAlign=top;spacingLeft=4;spacingRight=4;overflow=hidden;rotatable=0;points=[[0,0.5],[1,0.5]];portConstraint=eastwest;whiteSpace=wrap;html=1;" vertex="1" parent="FtbCnX3Roro6FYzfa0a7-194">
          <mxGeometry y="130" width="140" height="26" as="geometry" />
        </mxCell>
        <mxCell id="FtbCnX3Roro6FYzfa0a7-284" value="" style="endArrow=block;startArrow=none;endFill=1;startFill=0;html=1;rounded=0;entryX=0.01;entryY=0.654;entryDx=0;entryDy=0;entryPerimeter=0;" edge="1" parent="WIyWlLk6GJQsqaUBKTNV-1" target="FtbCnX3Roro6FYzfa0a7-279">
          <mxGeometry width="160" relative="1" as="geometry">
            <mxPoint x="1260" y="840" as="sourcePoint" />
            <mxPoint x="1320" y="780" as="targetPoint" />
          </mxGeometry>
        </mxCell>
        <mxCell id="FtbCnX3Roro6FYzfa0a7-337" value="" style="swimlane;startSize=0;dashed=1;dashPattern=8 8;" vertex="1" parent="WIyWlLk6GJQsqaUBKTNV-1">
          <mxGeometry x="80" y="970" width="1060" height="1170" as="geometry" />
        </mxCell>
        <mxCell id="FtbCnX3Roro6FYzfa0a7-338" value="&lt;font style=&quot;font-size: 19px;&quot;&gt;mouse.js&lt;/font&gt;" style="text;html=1;align=center;verticalAlign=middle;whiteSpace=wrap;rounded=0;" vertex="1" parent="FtbCnX3Roro6FYzfa0a7-337">
          <mxGeometry x="960" y="10" width="80" height="30" as="geometry" />
        </mxCell>
        <mxCell id="FtbCnX3Roro6FYzfa0a7-339" value="close_tree" style="swimlane;fontStyle=0;childLayout=stackLayout;horizontal=1;startSize=26;fillColor=none;horizontalStack=0;resizeParent=1;resizeParentMax=0;resizeLast=0;collapsible=1;marginBottom=0;whiteSpace=wrap;html=1;" vertex="1" parent="FtbCnX3Roro6FYzfa0a7-337">
          <mxGeometry x="30" y="100" width="140" height="130" as="geometry" />
        </mxCell>
        <mxCell id="FtbCnX3Roro6FYzfa0a7-340" value="+&amp;nbsp;&lt;span style=&quot;text-align: center;&quot;&gt;targetDiv&lt;/span&gt;: type" style="text;strokeColor=none;fillColor=none;align=left;verticalAlign=top;spacingLeft=4;spacingRight=4;overflow=hidden;rotatable=0;points=[[0,0.5],[1,0.5]];portConstraint=eastwest;whiteSpace=wrap;html=1;" vertex="1" parent="FtbCnX3Roro6FYzfa0a7-339">
          <mxGeometry y="26" width="140" height="26" as="geometry" />
        </mxCell>
        <mxCell id="FtbCnX3Roro6FYzfa0a7-341" value="+ depth: type" style="text;strokeColor=none;fillColor=none;align=left;verticalAlign=top;spacingLeft=4;spacingRight=4;overflow=hidden;rotatable=0;points=[[0,0.5],[1,0.5]];portConstraint=eastwest;whiteSpace=wrap;html=1;" vertex="1" parent="FtbCnX3Roro6FYzfa0a7-339">
          <mxGeometry y="52" width="140" height="26" as="geometry" />
        </mxCell>
        <mxCell id="FtbCnX3Roro6FYzfa0a7-342" value="+&amp;nbsp;&lt;span style=&quot;text-align: center;&quot;&gt;iconImg&lt;/span&gt;: type" style="text;strokeColor=none;fillColor=none;align=left;verticalAlign=top;spacingLeft=4;spacingRight=4;overflow=hidden;rotatable=0;points=[[0,0.5],[1,0.5]];portConstraint=eastwest;whiteSpace=wrap;html=1;" vertex="1" parent="FtbCnX3Roro6FYzfa0a7-339">
          <mxGeometry y="78" width="140" height="26" as="geometry" />
        </mxCell>
        <mxCell id="FtbCnX3Roro6FYzfa0a7-343" value="+&amp;nbsp;&lt;span style=&quot;text-align: center;&quot;&gt;index_icon&lt;/span&gt;: type" style="text;strokeColor=none;fillColor=none;align=left;verticalAlign=top;spacingLeft=4;spacingRight=4;overflow=hidden;rotatable=0;points=[[0,0.5],[1,0.5]];portConstraint=eastwest;whiteSpace=wrap;html=1;" vertex="1" parent="FtbCnX3Roro6FYzfa0a7-339">
          <mxGeometry y="104" width="140" height="26" as="geometry" />
        </mxCell>
        <mxCell id="FtbCnX3Roro6FYzfa0a7-344" value="check_img" style="swimlane;fontStyle=0;childLayout=stackLayout;horizontal=1;startSize=26;fillColor=none;horizontalStack=0;resizeParent=1;resizeParentMax=0;resizeLast=0;collapsible=1;marginBottom=0;whiteSpace=wrap;html=1;" vertex="1" parent="FtbCnX3Roro6FYzfa0a7-337">
          <mxGeometry x="200" y="100" width="140" height="130" as="geometry" />
        </mxCell>
        <mxCell id="FtbCnX3Roro6FYzfa0a7-345" value="+&amp;nbsp;&lt;span style=&quot;text-align: center;&quot;&gt;targetDiv&lt;/span&gt;: type" style="text;strokeColor=none;fillColor=none;align=left;verticalAlign=top;spacingLeft=4;spacingRight=4;overflow=hidden;rotatable=0;points=[[0,0.5],[1,0.5]];portConstraint=eastwest;whiteSpace=wrap;html=1;" vertex="1" parent="FtbCnX3Roro6FYzfa0a7-344">
          <mxGeometry y="26" width="140" height="26" as="geometry" />
        </mxCell>
        <mxCell id="FtbCnX3Roro6FYzfa0a7-346" value="+ depth: type" style="text;strokeColor=none;fillColor=none;align=left;verticalAlign=top;spacingLeft=4;spacingRight=4;overflow=hidden;rotatable=0;points=[[0,0.5],[1,0.5]];portConstraint=eastwest;whiteSpace=wrap;html=1;" vertex="1" parent="FtbCnX3Roro6FYzfa0a7-344">
          <mxGeometry y="52" width="140" height="26" as="geometry" />
        </mxCell>
        <mxCell id="FtbCnX3Roro6FYzfa0a7-347" value="+&amp;nbsp;&lt;span style=&quot;text-align: center;&quot;&gt;iconImg&lt;/span&gt;: type" style="text;strokeColor=none;fillColor=none;align=left;verticalAlign=top;spacingLeft=4;spacingRight=4;overflow=hidden;rotatable=0;points=[[0,0.5],[1,0.5]];portConstraint=eastwest;whiteSpace=wrap;html=1;" vertex="1" parent="FtbCnX3Roro6FYzfa0a7-344">
          <mxGeometry y="78" width="140" height="26" as="geometry" />
        </mxCell>
        <mxCell id="FtbCnX3Roro6FYzfa0a7-348" value="+&amp;nbsp;&lt;span style=&quot;text-align: center;&quot;&gt;index_icon&lt;/span&gt;: type" style="text;strokeColor=none;fillColor=none;align=left;verticalAlign=top;spacingLeft=4;spacingRight=4;overflow=hidden;rotatable=0;points=[[0,0.5],[1,0.5]];portConstraint=eastwest;whiteSpace=wrap;html=1;" vertex="1" parent="FtbCnX3Roro6FYzfa0a7-344">
          <mxGeometry y="104" width="140" height="26" as="geometry" />
        </mxCell>
        <mxCell id="FtbCnX3Roro6FYzfa0a7-367" value="document.addEventListener&amp;nbsp;" style="swimlane;fontStyle=0;childLayout=stackLayout;horizontal=1;startSize=26;fillColor=none;horizontalStack=0;resizeParent=1;resizeParentMax=0;resizeLast=0;collapsible=1;marginBottom=0;whiteSpace=wrap;html=1;" vertex="1" parent="FtbCnX3Roro6FYzfa0a7-337">
          <mxGeometry x="30" y="20" width="200" height="52" as="geometry" />
        </mxCell>
        <mxCell id="FtbCnX3Roro6FYzfa0a7-368" value="&lt;div style=&quot;text-align: center;&quot;&gt;DOMContentLoaded&lt;br&gt;&lt;/div&gt;" style="text;strokeColor=none;fillColor=none;align=left;verticalAlign=top;spacingLeft=4;spacingRight=4;overflow=hidden;rotatable=0;points=[[0,0.5],[1,0.5]];portConstraint=eastwest;whiteSpace=wrap;html=1;" vertex="1" parent="FtbCnX3Roro6FYzfa0a7-367">
          <mxGeometry y="26" width="200" height="26" as="geometry" />
        </mxCell>
        <mxCell id="FtbCnX3Roro6FYzfa0a7-312" value="open_tree" style="swimlane;fontStyle=0;childLayout=stackLayout;horizontal=1;startSize=26;fillColor=none;horizontalStack=0;resizeParent=1;resizeParentMax=0;resizeLast=0;collapsible=1;marginBottom=0;whiteSpace=wrap;html=1;" vertex="1" parent="FtbCnX3Roro6FYzfa0a7-337">
          <mxGeometry x="370" y="100" width="140" height="130" as="geometry" />
        </mxCell>
        <mxCell id="FtbCnX3Roro6FYzfa0a7-313" value="+&amp;nbsp;&lt;span style=&quot;text-align: center;&quot;&gt;targetDiv&lt;/span&gt;: type" style="text;strokeColor=none;fillColor=none;align=left;verticalAlign=top;spacingLeft=4;spacingRight=4;overflow=hidden;rotatable=0;points=[[0,0.5],[1,0.5]];portConstraint=eastwest;whiteSpace=wrap;html=1;" vertex="1" parent="FtbCnX3Roro6FYzfa0a7-312">
          <mxGeometry y="26" width="140" height="26" as="geometry" />
        </mxCell>
        <mxCell id="FtbCnX3Roro6FYzfa0a7-314" value="+ depth: type" style="text;strokeColor=none;fillColor=none;align=left;verticalAlign=top;spacingLeft=4;spacingRight=4;overflow=hidden;rotatable=0;points=[[0,0.5],[1,0.5]];portConstraint=eastwest;whiteSpace=wrap;html=1;" vertex="1" parent="FtbCnX3Roro6FYzfa0a7-312">
          <mxGeometry y="52" width="140" height="26" as="geometry" />
        </mxCell>
        <mxCell id="FtbCnX3Roro6FYzfa0a7-315" value="+&amp;nbsp;&lt;span style=&quot;text-align: center;&quot;&gt;iconImg&lt;/span&gt;: type" style="text;strokeColor=none;fillColor=none;align=left;verticalAlign=top;spacingLeft=4;spacingRight=4;overflow=hidden;rotatable=0;points=[[0,0.5],[1,0.5]];portConstraint=eastwest;whiteSpace=wrap;html=1;" vertex="1" parent="FtbCnX3Roro6FYzfa0a7-312">
          <mxGeometry y="78" width="140" height="26" as="geometry" />
        </mxCell>
        <mxCell id="FtbCnX3Roro6FYzfa0a7-316" value="+&amp;nbsp;&lt;span style=&quot;text-align: center;&quot;&gt;index_icon&lt;/span&gt;: type" style="text;strokeColor=none;fillColor=none;align=left;verticalAlign=top;spacingLeft=4;spacingRight=4;overflow=hidden;rotatable=0;points=[[0,0.5],[1,0.5]];portConstraint=eastwest;whiteSpace=wrap;html=1;" vertex="1" parent="FtbCnX3Roro6FYzfa0a7-312">
          <mxGeometry y="104" width="140" height="26" as="geometry" />
        </mxCell>
        <mxCell id="FtbCnX3Roro6FYzfa0a7-369" value="" style="endArrow=block;endFill=1;html=1;edgeStyle=orthogonalEdgeStyle;align=left;verticalAlign=top;rounded=0;exitX=1;exitY=0.5;exitDx=0;exitDy=0;entryX=0;entryY=0.5;entryDx=0;entryDy=0;" edge="1" parent="FtbCnX3Roro6FYzfa0a7-337" source="FtbCnX3Roro6FYzfa0a7-347" target="FtbCnX3Roro6FYzfa0a7-315">
          <mxGeometry x="-1" relative="1" as="geometry">
            <mxPoint x="450" y="250" as="sourcePoint" />
            <mxPoint x="610" y="250" as="targetPoint" />
          </mxGeometry>
        </mxCell>
        <mxCell id="FtbCnX3Roro6FYzfa0a7-371" value="" style="html=1;verticalAlign=bottom;endArrow=block;curved=0;rounded=0;entryX=1;entryY=0.5;entryDx=0;entryDy=0;exitX=0;exitY=0.5;exitDx=0;exitDy=0;" edge="1" parent="FtbCnX3Roro6FYzfa0a7-337" source="FtbCnX3Roro6FYzfa0a7-347" target="FtbCnX3Roro6FYzfa0a7-342">
          <mxGeometry width="80" relative="1" as="geometry">
            <mxPoint x="190" y="300" as="sourcePoint" />
            <mxPoint x="270" y="300" as="targetPoint" />
          </mxGeometry>
        </mxCell>
        <mxCell id="FtbCnX3Roro6FYzfa0a7-357" value="open_click" style="swimlane;fontStyle=0;childLayout=stackLayout;horizontal=1;startSize=26;fillColor=none;horizontalStack=0;resizeParent=1;resizeParentMax=0;resizeLast=0;collapsible=1;marginBottom=0;whiteSpace=wrap;html=1;" vertex="1" parent="FtbCnX3Roro6FYzfa0a7-337">
          <mxGeometry x="200" y="260" width="140" height="52" as="geometry" />
        </mxCell>
        <mxCell id="FtbCnX3Roro6FYzfa0a7-358" value="&lt;div style=&quot;text-align: center;&quot;&gt;&lt;span style=&quot;background-color: initial;&quot;&gt;+ &lt;/span&gt;&lt;span style=&quot;background-color: initial;&quot;&gt;div&lt;/span&gt;&lt;span style=&quot;background-color: initial;&quot;&gt;: type&lt;/span&gt;&lt;/div&gt;" style="text;strokeColor=none;fillColor=none;align=left;verticalAlign=top;spacingLeft=4;spacingRight=4;overflow=hidden;rotatable=0;points=[[0,0.5],[1,0.5]];portConstraint=eastwest;whiteSpace=wrap;html=1;" vertex="1" parent="FtbCnX3Roro6FYzfa0a7-357">
          <mxGeometry y="26" width="140" height="26" as="geometry" />
        </mxCell>
        <mxCell id="FtbCnX3Roro6FYzfa0a7-373" value="" style="html=1;verticalAlign=bottom;endArrow=block;curved=0;rounded=0;entryX=0.501;entryY=1.012;entryDx=0;entryDy=0;exitX=0.5;exitY=0;exitDx=0;exitDy=0;entryPerimeter=0;" edge="1" parent="FtbCnX3Roro6FYzfa0a7-337" source="FtbCnX3Roro6FYzfa0a7-357" target="FtbCnX3Roro6FYzfa0a7-348">
          <mxGeometry width="80" relative="1" as="geometry">
            <mxPoint x="210" y="201" as="sourcePoint" />
            <mxPoint x="180" y="201" as="targetPoint" />
          </mxGeometry>
        </mxCell>
        <mxCell id="FtbCnX3Roro6FYzfa0a7-374" value="handleClick" style="swimlane;fontStyle=0;childLayout=stackLayout;horizontal=1;startSize=26;fillColor=none;horizontalStack=0;resizeParent=1;resizeParentMax=0;resizeLast=0;collapsible=1;marginBottom=0;whiteSpace=wrap;html=1;" vertex="1" parent="FtbCnX3Roro6FYzfa0a7-337">
          <mxGeometry x="200" y="344" width="140" height="52" as="geometry" />
        </mxCell>
        <mxCell id="FtbCnX3Roro6FYzfa0a7-375" value="&lt;div style=&quot;text-align: center;&quot;&gt;&lt;span style=&quot;background-color: initial;&quot;&gt;+ &lt;/span&gt;&lt;span style=&quot;background-color: initial;&quot;&gt;element_id&lt;/span&gt;&lt;span style=&quot;background-color: initial;&quot;&gt;: type&lt;/span&gt;&lt;/div&gt;" style="text;strokeColor=none;fillColor=none;align=left;verticalAlign=top;spacingLeft=4;spacingRight=4;overflow=hidden;rotatable=0;points=[[0,0.5],[1,0.5]];portConstraint=eastwest;whiteSpace=wrap;html=1;" vertex="1" parent="FtbCnX3Roro6FYzfa0a7-374">
          <mxGeometry y="26" width="140" height="26" as="geometry" />
        </mxCell>
        <mxCell id="FtbCnX3Roro6FYzfa0a7-376" value="" style="html=1;verticalAlign=bottom;endArrow=block;curved=0;rounded=0;entryX=0.501;entryY=0.994;entryDx=0;entryDy=0;exitX=0.5;exitY=0;exitDx=0;exitDy=0;entryPerimeter=0;" edge="1" parent="FtbCnX3Roro6FYzfa0a7-337" source="FtbCnX3Roro6FYzfa0a7-374" target="FtbCnX3Roro6FYzfa0a7-358">
          <mxGeometry width="80" relative="1" as="geometry">
            <mxPoint x="280" y="270" as="sourcePoint" />
            <mxPoint x="280" y="240" as="targetPoint" />
          </mxGeometry>
        </mxCell>
        <mxCell id="FtbCnX3Roro6FYzfa0a7-359" value="document.addEventListener" style="swimlane;fontStyle=0;childLayout=stackLayout;horizontal=1;startSize=26;fillColor=none;horizontalStack=0;resizeParent=1;resizeParentMax=0;resizeLast=0;collapsible=1;marginBottom=0;whiteSpace=wrap;html=1;" vertex="1" parent="FtbCnX3Roro6FYzfa0a7-337">
          <mxGeometry x="170" y="440" width="200" height="52" as="geometry" />
        </mxCell>
        <mxCell id="FtbCnX3Roro6FYzfa0a7-360" value="&lt;div style=&quot;text-align: center;&quot;&gt;&lt;span style=&quot;background-color: initial;&quot;&gt;keydown&lt;/span&gt;&lt;br&gt;&lt;/div&gt;" style="text;strokeColor=none;fillColor=none;align=left;verticalAlign=top;spacingLeft=4;spacingRight=4;overflow=hidden;rotatable=0;points=[[0,0.5],[1,0.5]];portConstraint=eastwest;whiteSpace=wrap;html=1;" vertex="1" parent="FtbCnX3Roro6FYzfa0a7-359">
          <mxGeometry y="26" width="200" height="26" as="geometry" />
        </mxCell>
        <mxCell id="FtbCnX3Roro6FYzfa0a7-377" value="" style="html=1;verticalAlign=bottom;endArrow=block;curved=0;rounded=0;exitX=0.5;exitY=0;exitDx=0;exitDy=0;" edge="1" parent="FtbCnX3Roro6FYzfa0a7-337" source="FtbCnX3Roro6FYzfa0a7-359" target="FtbCnX3Roro6FYzfa0a7-375">
          <mxGeometry width="80" relative="1" as="geometry">
            <mxPoint x="280" y="354" as="sourcePoint" />
            <mxPoint x="280" y="322" as="targetPoint" />
          </mxGeometry>
        </mxCell>
        <mxCell id="FtbCnX3Roro6FYzfa0a7-328" value="close_context_menu" style="swimlane;fontStyle=1;align=center;verticalAlign=top;childLayout=stackLayout;horizontal=1;startSize=26;horizontalStack=0;resizeParent=1;resizeParentMax=0;resizeLast=0;collapsible=1;marginBottom=0;whiteSpace=wrap;html=1;" vertex="1" parent="FtbCnX3Roro6FYzfa0a7-337">
          <mxGeometry x="400" y="440" width="140" height="52" as="geometry">
            <mxRectangle x="400" y="440" width="150" height="30" as="alternateBounds" />
          </mxGeometry>
        </mxCell>
        <mxCell id="FtbCnX3Roro6FYzfa0a7-331" value="&amp;nbsp;" style="text;strokeColor=none;fillColor=none;align=left;verticalAlign=top;spacingLeft=4;spacingRight=4;overflow=hidden;rotatable=0;points=[[0,0.5],[1,0.5]];portConstraint=eastwest;whiteSpace=wrap;html=1;" vertex="1" parent="FtbCnX3Roro6FYzfa0a7-328">
          <mxGeometry y="26" width="140" height="26" as="geometry" />
        </mxCell>
        <mxCell id="FtbCnX3Roro6FYzfa0a7-351" value="close_input" style="swimlane;fontStyle=0;childLayout=stackLayout;horizontal=1;startSize=26;fillColor=none;horizontalStack=0;resizeParent=1;resizeParentMax=0;resizeLast=0;collapsible=1;marginBottom=0;whiteSpace=wrap;html=1;" vertex="1" parent="FtbCnX3Roro6FYzfa0a7-337">
          <mxGeometry x="30" y="344" width="140" height="52" as="geometry" />
        </mxCell>
        <mxCell id="FtbCnX3Roro6FYzfa0a7-352" value="&lt;div style=&quot;text-align: center;&quot;&gt;&lt;span style=&quot;background-color: initial;&quot;&gt;+ &lt;/span&gt;&lt;span style=&quot;background-color: initial;&quot;&gt;element_id&lt;/span&gt;&lt;span style=&quot;background-color: initial;&quot;&gt;: type&lt;/span&gt;&lt;/div&gt;" style="text;strokeColor=none;fillColor=none;align=left;verticalAlign=top;spacingLeft=4;spacingRight=4;overflow=hidden;rotatable=0;points=[[0,0.5],[1,0.5]];portConstraint=eastwest;whiteSpace=wrap;html=1;" vertex="1" parent="FtbCnX3Roro6FYzfa0a7-351">
          <mxGeometry y="26" width="140" height="26" as="geometry" />
        </mxCell>
        <mxCell id="FtbCnX3Roro6FYzfa0a7-380" value="" style="html=1;verticalAlign=bottom;endArrow=block;curved=0;rounded=0;exitX=1;exitY=0.005;exitDx=0;exitDy=0;entryX=0.001;entryY=-0.002;entryDx=0;entryDy=0;entryPerimeter=0;exitPerimeter=0;" edge="1" parent="FtbCnX3Roro6FYzfa0a7-337" source="FtbCnX3Roro6FYzfa0a7-360" target="FtbCnX3Roro6FYzfa0a7-331">
          <mxGeometry width="80" relative="1" as="geometry">
            <mxPoint x="280" y="450" as="sourcePoint" />
            <mxPoint x="280" y="406" as="targetPoint" />
          </mxGeometry>
        </mxCell>
        <mxCell id="FtbCnX3Roro6FYzfa0a7-383" value="" style="endArrow=classic;html=1;rounded=0;edgeStyle=elbowEdgeStyle;" edge="1" parent="FtbCnX3Roro6FYzfa0a7-337">
          <mxGeometry width="50" height="50" relative="1" as="geometry">
            <mxPoint x="340" y="368" as="sourcePoint" />
            <mxPoint x="420" y="440" as="targetPoint" />
            <Array as="points">
              <mxPoint x="420" y="400" />
            </Array>
          </mxGeometry>
        </mxCell>
        <mxCell id="FtbCnX3Roro6FYzfa0a7-384" value="" style="html=1;verticalAlign=bottom;endArrow=block;rounded=0;exitX=0.001;exitY=-0.002;exitDx=0;exitDy=0;edgeStyle=elbowEdgeStyle;entryX=1.004;entryY=0.001;entryDx=0;entryDy=0;entryPerimeter=0;exitPerimeter=0;" edge="1" parent="FtbCnX3Roro6FYzfa0a7-337" source="FtbCnX3Roro6FYzfa0a7-375" target="FtbCnX3Roro6FYzfa0a7-352">
          <mxGeometry width="80" relative="1" as="geometry">
            <mxPoint x="280" y="354" as="sourcePoint" />
            <mxPoint x="280" y="322" as="targetPoint" />
          </mxGeometry>
        </mxCell>
        <mxCell id="FtbCnX3Roro6FYzfa0a7-386" value="check_run" style="swimlane;fontStyle=0;childLayout=stackLayout;horizontal=1;startSize=26;fillColor=none;horizontalStack=0;resizeParent=1;resizeParentMax=0;resizeLast=0;collapsible=1;marginBottom=0;whiteSpace=wrap;html=1;" vertex="1" parent="FtbCnX3Roro6FYzfa0a7-337">
          <mxGeometry x="590" y="260" width="140" height="130" as="geometry" />
        </mxCell>
        <mxCell id="FtbCnX3Roro6FYzfa0a7-387" value="+&amp;nbsp;&lt;span style=&quot;text-align: center;&quot;&gt;func&lt;/span&gt;: type" style="text;strokeColor=none;fillColor=none;align=left;verticalAlign=top;spacingLeft=4;spacingRight=4;overflow=hidden;rotatable=0;points=[[0,0.5],[1,0.5]];portConstraint=eastwest;whiteSpace=wrap;html=1;" vertex="1" parent="FtbCnX3Roro6FYzfa0a7-386">
          <mxGeometry y="26" width="140" height="26" as="geometry" />
        </mxCell>
        <mxCell id="FtbCnX3Roro6FYzfa0a7-388" value="+ element: type" style="text;strokeColor=none;fillColor=none;align=left;verticalAlign=top;spacingLeft=4;spacingRight=4;overflow=hidden;rotatable=0;points=[[0,0.5],[1,0.5]];portConstraint=eastwest;whiteSpace=wrap;html=1;" vertex="1" parent="FtbCnX3Roro6FYzfa0a7-386">
          <mxGeometry y="52" width="140" height="26" as="geometry" />
        </mxCell>
        <mxCell id="FtbCnX3Roro6FYzfa0a7-389" value="+&amp;nbsp;&lt;span style=&quot;text-align: center;&quot;&gt;parent_element&lt;/span&gt;: type" style="text;strokeColor=none;fillColor=none;align=left;verticalAlign=top;spacingLeft=4;spacingRight=4;overflow=hidden;rotatable=0;points=[[0,0.5],[1,0.5]];portConstraint=eastwest;whiteSpace=wrap;html=1;" vertex="1" parent="FtbCnX3Roro6FYzfa0a7-386">
          <mxGeometry y="78" width="140" height="26" as="geometry" />
        </mxCell>
        <mxCell id="FtbCnX3Roro6FYzfa0a7-390" value="+&amp;nbsp;&lt;span style=&quot;text-align: center;&quot;&gt;value&lt;/span&gt;: type" style="text;strokeColor=none;fillColor=none;align=left;verticalAlign=top;spacingLeft=4;spacingRight=4;overflow=hidden;rotatable=0;points=[[0,0.5],[1,0.5]];portConstraint=eastwest;whiteSpace=wrap;html=1;" vertex="1" parent="FtbCnX3Roro6FYzfa0a7-386">
          <mxGeometry y="104" width="140" height="26" as="geometry" />
        </mxCell>
        <mxCell id="FtbCnX3Roro6FYzfa0a7-391" value="" style="endArrow=classic;html=1;rounded=0;exitX=1;exitY=0.25;exitDx=0;exitDy=0;entryX=-0.004;entryY=0.721;entryDx=0;entryDy=0;entryPerimeter=0;" edge="1" parent="FtbCnX3Roro6FYzfa0a7-337" source="FtbCnX3Roro6FYzfa0a7-374" target="FtbCnX3Roro6FYzfa0a7-389">
          <mxGeometry width="50" height="50" relative="1" as="geometry">
            <mxPoint x="490" y="340" as="sourcePoint" />
            <mxPoint x="540" y="290" as="targetPoint" />
          </mxGeometry>
        </mxCell>
        <mxCell id="FtbCnX3Roro6FYzfa0a7-361" value="document.addEventListener&amp;nbsp;" style="swimlane;fontStyle=0;childLayout=stackLayout;horizontal=1;startSize=26;fillColor=none;horizontalStack=0;resizeParent=1;resizeParentMax=0;resizeLast=0;collapsible=1;marginBottom=0;whiteSpace=wrap;html=1;" vertex="1" parent="FtbCnX3Roro6FYzfa0a7-337">
          <mxGeometry x="250" y="20" width="200" height="52" as="geometry" />
        </mxCell>
        <mxCell id="FtbCnX3Roro6FYzfa0a7-362" value="&lt;div style=&quot;text-align: center;&quot;&gt;click&lt;br&gt;&lt;/div&gt;" style="text;strokeColor=none;fillColor=none;align=left;verticalAlign=top;spacingLeft=4;spacingRight=4;overflow=hidden;rotatable=0;points=[[0,0.5],[1,0.5]];portConstraint=eastwest;whiteSpace=wrap;html=1;" vertex="1" parent="FtbCnX3Roro6FYzfa0a7-361">
          <mxGeometry y="26" width="200" height="26" as="geometry" />
        </mxCell>
        <mxCell id="FtbCnX3Roro6FYzfa0a7-396" value="" style="endArrow=classic;html=1;rounded=0;entryX=0.5;entryY=1;entryDx=0;entryDy=0;exitX=0.5;exitY=0;exitDx=0;exitDy=0;startArrow=classic;startFill=1;" edge="1" parent="FtbCnX3Roro6FYzfa0a7-337" target="FtbCnX3Roro6FYzfa0a7-399">
          <mxGeometry width="50" height="50" relative="1" as="geometry">
            <mxPoint x="890" y="402" as="sourcePoint" />
            <mxPoint x="889.8600000000001" y="362.02600000000007" as="targetPoint" />
          </mxGeometry>
        </mxCell>
        <mxCell id="FtbCnX3Roro6FYzfa0a7-405" value="&lt;span style=&quot;font-weight: 400;&quot;&gt;get_path_tree_focus&lt;/span&gt;" style="swimlane;fontStyle=1;align=center;verticalAlign=top;childLayout=stackLayout;horizontal=1;startSize=26;horizontalStack=0;resizeParent=1;resizeParentMax=0;resizeLast=0;collapsible=1;marginBottom=0;whiteSpace=wrap;html=1;" vertex="1" parent="FtbCnX3Roro6FYzfa0a7-337">
          <mxGeometry x="820" y="402" width="140" height="86" as="geometry" />
        </mxCell>
        <mxCell id="FtbCnX3Roro6FYzfa0a7-406" value="+&amp;nbsp;&lt;span style=&quot;text-align: center;&quot;&gt;element&lt;/span&gt;: type" style="text;strokeColor=none;fillColor=none;align=left;verticalAlign=top;spacingLeft=4;spacingRight=4;overflow=hidden;rotatable=0;points=[[0,0.5],[1,0.5]];portConstraint=eastwest;whiteSpace=wrap;html=1;" vertex="1" parent="FtbCnX3Roro6FYzfa0a7-405">
          <mxGeometry y="26" width="140" height="26" as="geometry" />
        </mxCell>
        <mxCell id="FtbCnX3Roro6FYzfa0a7-407" value="" style="line;strokeWidth=1;fillColor=none;align=left;verticalAlign=middle;spacingTop=-1;spacingLeft=3;spacingRight=3;rotatable=0;labelPosition=right;points=[];portConstraint=eastwest;strokeColor=inherit;" vertex="1" parent="FtbCnX3Roro6FYzfa0a7-405">
          <mxGeometry y="52" width="140" height="8" as="geometry" />
        </mxCell>
        <mxCell id="FtbCnX3Roro6FYzfa0a7-408" value="return: Any" style="text;strokeColor=none;fillColor=none;align=left;verticalAlign=top;spacingLeft=4;spacingRight=4;overflow=hidden;rotatable=0;points=[[0,0.5],[1,0.5]];portConstraint=eastwest;whiteSpace=wrap;html=1;" vertex="1" parent="FtbCnX3Roro6FYzfa0a7-405">
          <mxGeometry y="60" width="140" height="26" as="geometry" />
        </mxCell>
        <mxCell id="FtbCnX3Roro6FYzfa0a7-399" value="&lt;span style=&quot;font-weight: 400;&quot;&gt;findPathToRoot&lt;/span&gt;" style="swimlane;fontStyle=1;align=center;verticalAlign=top;childLayout=stackLayout;horizontal=1;startSize=26;horizontalStack=0;resizeParent=1;resizeParentMax=0;resizeLast=0;collapsible=1;marginBottom=0;whiteSpace=wrap;html=1;" vertex="1" parent="FtbCnX3Roro6FYzfa0a7-337">
          <mxGeometry x="820" y="270" width="140" height="86" as="geometry" />
        </mxCell>
        <mxCell id="FtbCnX3Roro6FYzfa0a7-400" value="+&amp;nbsp;&lt;span style=&quot;text-align: center;&quot;&gt;id&lt;/span&gt;: type" style="text;strokeColor=none;fillColor=none;align=left;verticalAlign=top;spacingLeft=4;spacingRight=4;overflow=hidden;rotatable=0;points=[[0,0.5],[1,0.5]];portConstraint=eastwest;whiteSpace=wrap;html=1;" vertex="1" parent="FtbCnX3Roro6FYzfa0a7-399">
          <mxGeometry y="26" width="140" height="26" as="geometry" />
        </mxCell>
        <mxCell id="FtbCnX3Roro6FYzfa0a7-403" value="" style="line;strokeWidth=1;fillColor=none;align=left;verticalAlign=middle;spacingTop=-1;spacingLeft=3;spacingRight=3;rotatable=0;labelPosition=right;points=[];portConstraint=eastwest;strokeColor=inherit;" vertex="1" parent="FtbCnX3Roro6FYzfa0a7-399">
          <mxGeometry y="52" width="140" height="8" as="geometry" />
        </mxCell>
        <mxCell id="FtbCnX3Roro6FYzfa0a7-404" value="return: Any" style="text;strokeColor=none;fillColor=none;align=left;verticalAlign=top;spacingLeft=4;spacingRight=4;overflow=hidden;rotatable=0;points=[[0,0.5],[1,0.5]];portConstraint=eastwest;whiteSpace=wrap;html=1;" vertex="1" parent="FtbCnX3Roro6FYzfa0a7-399">
          <mxGeometry y="60" width="140" height="26" as="geometry" />
        </mxCell>
        <mxCell id="FtbCnX3Roro6FYzfa0a7-349" value="close_input_element" style="swimlane;fontStyle=1;align=center;verticalAlign=top;childLayout=stackLayout;horizontal=1;startSize=26;horizontalStack=0;resizeParent=1;resizeParentMax=0;resizeLast=0;collapsible=1;marginBottom=0;whiteSpace=wrap;html=1;" vertex="1" parent="FtbCnX3Roro6FYzfa0a7-337">
          <mxGeometry x="30" y="530" width="140" height="52" as="geometry" />
        </mxCell>
        <mxCell id="FtbCnX3Roro6FYzfa0a7-350" value="&amp;nbsp;" style="text;strokeColor=none;fillColor=none;align=left;verticalAlign=top;spacingLeft=4;spacingRight=4;overflow=hidden;rotatable=0;points=[[0,0.5],[1,0.5]];portConstraint=eastwest;whiteSpace=wrap;html=1;" vertex="1" parent="FtbCnX3Roro6FYzfa0a7-349">
          <mxGeometry y="26" width="140" height="26" as="geometry" />
        </mxCell>
        <mxCell id="FtbCnX3Roro6FYzfa0a7-409" value="" style="endArrow=classic;html=1;rounded=0;entryX=0.5;entryY=0;entryDx=0;entryDy=0;exitX=0.5;exitY=1;exitDx=0;exitDy=0;" edge="1" parent="FtbCnX3Roro6FYzfa0a7-337" source="FtbCnX3Roro6FYzfa0a7-351" target="FtbCnX3Roro6FYzfa0a7-349">
          <mxGeometry width="50" height="50" relative="1" as="geometry">
            <mxPoint x="260" y="590" as="sourcePoint" />
            <mxPoint x="310" y="540" as="targetPoint" />
          </mxGeometry>
        </mxCell>
        <mxCell id="FtbCnX3Roro6FYzfa0a7-410" value="" style="whiteSpace=wrap;html=1;aspect=fixed;dashed=1;" vertex="1" parent="FtbCnX3Roro6FYzfa0a7-337">
          <mxGeometry x="230" y="594" width="380" height="380" as="geometry" />
        </mxCell>
        <mxCell id="FtbCnX3Roro6FYzfa0a7-411" value="&lt;font style=&quot;font-size: 14px;&quot;&gt;&lt;b&gt;class TreeFocus&lt;/b&gt;&lt;/font&gt;" style="text;html=1;align=center;verticalAlign=middle;whiteSpace=wrap;rounded=0;" vertex="1" parent="FtbCnX3Roro6FYzfa0a7-337">
          <mxGeometry x="490" y="593" width="120" height="30" as="geometry" />
        </mxCell>
        <mxCell id="FtbCnX3Roro6FYzfa0a7-412" value="setFocus" style="swimlane;fontStyle=1;align=center;verticalAlign=top;childLayout=stackLayout;horizontal=1;startSize=26;horizontalStack=0;resizeParent=1;resizeParentMax=0;resizeLast=0;collapsible=1;marginBottom=0;whiteSpace=wrap;html=1;" vertex="1" parent="FtbCnX3Roro6FYzfa0a7-337">
          <mxGeometry x="430" y="623" width="140" height="52" as="geometry" />
        </mxCell>
        <mxCell id="FtbCnX3Roro6FYzfa0a7-413" value="&amp;nbsp;" style="text;strokeColor=none;fillColor=none;align=left;verticalAlign=top;spacingLeft=4;spacingRight=4;overflow=hidden;rotatable=0;points=[[0,0.5],[1,0.5]];portConstraint=eastwest;whiteSpace=wrap;html=1;" vertex="1" parent="FtbCnX3Roro6FYzfa0a7-412">
          <mxGeometry y="26" width="140" height="26" as="geometry" />
        </mxCell>
        <mxCell id="FtbCnX3Roro6FYzfa0a7-414" value="deleteFocus" style="swimlane;fontStyle=0;childLayout=stackLayout;horizontal=1;startSize=26;fillColor=none;horizontalStack=0;resizeParent=1;resizeParentMax=0;resizeLast=0;collapsible=1;marginBottom=0;whiteSpace=wrap;html=1;" vertex="1" parent="FtbCnX3Roro6FYzfa0a7-337">
          <mxGeometry x="270" y="623" width="140" height="52" as="geometry" />
        </mxCell>
        <mxCell id="FtbCnX3Roro6FYzfa0a7-415" value="&lt;div style=&quot;text-align: center;&quot;&gt;&lt;span style=&quot;background-color: initial;&quot;&gt;+ &lt;/span&gt;&lt;span style=&quot;background-color: initial;&quot;&gt;element&lt;/span&gt;&lt;span style=&quot;background-color: initial;&quot;&gt;: type&lt;/span&gt;&lt;/div&gt;" style="text;strokeColor=none;fillColor=none;align=left;verticalAlign=top;spacingLeft=4;spacingRight=4;overflow=hidden;rotatable=0;points=[[0,0.5],[1,0.5]];portConstraint=eastwest;whiteSpace=wrap;html=1;" vertex="1" parent="FtbCnX3Roro6FYzfa0a7-414">
          <mxGeometry y="26" width="140" height="26" as="geometry" />
        </mxCell>
        <mxCell id="FtbCnX3Roro6FYzfa0a7-416" value="" style="endArrow=classic;html=1;rounded=0;entryX=-0.021;entryY=0.114;entryDx=0;entryDy=0;entryPerimeter=0;edgeStyle=orthogonalEdgeStyle;curved=1;" edge="1" parent="FtbCnX3Roro6FYzfa0a7-337" source="FtbCnX3Roro6FYzfa0a7-350" target="FtbCnX3Roro6FYzfa0a7-415">
          <mxGeometry width="50" height="50" relative="1" as="geometry">
            <mxPoint x="420" y="570" as="sourcePoint" />
            <mxPoint x="470" y="520" as="targetPoint" />
          </mxGeometry>
        </mxCell>
        <mxCell id="FtbCnX3Roro6FYzfa0a7-418" value="" style="endArrow=classic;html=1;rounded=0;exitX=0.539;exitY=1.124;exitDx=0;exitDy=0;exitPerimeter=0;entryX=0.315;entryY=-0.021;entryDx=0;entryDy=0;entryPerimeter=0;edgeStyle=orthogonalEdgeStyle;curved=1;" edge="1" parent="FtbCnX3Roro6FYzfa0a7-337" source="FtbCnX3Roro6FYzfa0a7-360" target="FtbCnX3Roro6FYzfa0a7-414">
          <mxGeometry width="50" height="50" relative="1" as="geometry">
            <mxPoint x="420" y="580" as="sourcePoint" />
            <mxPoint x="470" y="530" as="targetPoint" />
            <Array as="points">
              <mxPoint x="290" y="495" />
              <mxPoint x="290" y="560" />
              <mxPoint x="314" y="560" />
            </Array>
          </mxGeometry>
        </mxCell>
        <mxCell id="FtbCnX3Roro6FYzfa0a7-420" value="" style="endArrow=classic;html=1;rounded=0;entryX=0.984;entryY=0.067;entryDx=0;entryDy=0;entryPerimeter=0;edgeStyle=orthogonalEdgeStyle;curved=1;" edge="1" parent="FtbCnX3Roro6FYzfa0a7-337" source="FtbCnX3Roro6FYzfa0a7-408" target="FtbCnX3Roro6FYzfa0a7-413">
          <mxGeometry width="50" height="50" relative="1" as="geometry">
            <mxPoint x="700" y="610" as="sourcePoint" />
            <mxPoint x="750" y="560" as="targetPoint" />
            <Array as="points">
              <mxPoint x="840" y="651" />
            </Array>
          </mxGeometry>
        </mxCell>
        <mxCell id="FtbCnX3Roro6FYzfa0a7-378" value="document.addEventListener&amp;nbsp;" style="swimlane;fontStyle=0;childLayout=stackLayout;horizontal=1;startSize=26;fillColor=none;horizontalStack=0;resizeParent=1;resizeParentMax=0;resizeLast=0;collapsible=1;marginBottom=0;whiteSpace=wrap;html=1;" vertex="1" parent="WIyWlLk6GJQsqaUBKTNV-1">
          <mxGeometry x="650" y="1410" width="200" height="52" as="geometry" />
        </mxCell>
        <mxCell id="FtbCnX3Roro6FYzfa0a7-379" value="&lt;div style=&quot;text-align: center;&quot;&gt;contextmenu&lt;br&gt;&lt;/div&gt;" style="text;strokeColor=none;fillColor=none;align=left;verticalAlign=top;spacingLeft=4;spacingRight=4;overflow=hidden;rotatable=0;points=[[0,0.5],[1,0.5]];portConstraint=eastwest;whiteSpace=wrap;html=1;" vertex="1" parent="FtbCnX3Roro6FYzfa0a7-378">
          <mxGeometry y="26" width="200" height="26" as="geometry" />
        </mxCell>
        <mxCell id="FtbCnX3Roro6FYzfa0a7-382" value="" style="html=1;verticalAlign=bottom;endArrow=block;curved=0;rounded=0;exitX=-0.005;exitY=-0.056;exitDx=0;exitDy=0;entryX=1.006;entryY=0.468;entryDx=0;entryDy=0;entryPerimeter=0;exitPerimeter=0;" edge="1" parent="WIyWlLk6GJQsqaUBKTNV-1" source="FtbCnX3Roro6FYzfa0a7-379" target="FtbCnX3Roro6FYzfa0a7-328">
          <mxGeometry width="80" relative="1" as="geometry">
            <mxPoint x="460" y="1446" as="sourcePoint" />
            <mxPoint x="490" y="1446" as="targetPoint" />
          </mxGeometry>
        </mxCell>
        <mxCell id="FtbCnX3Roro6FYzfa0a7-392" value="" style="endArrow=classic;html=1;rounded=0;entryX=0.537;entryY=1.001;entryDx=0;entryDy=0;entryPerimeter=0;exitX=0.472;exitY=-0.029;exitDx=0;exitDy=0;exitPerimeter=0;" edge="1" parent="WIyWlLk6GJQsqaUBKTNV-1" source="FtbCnX3Roro6FYzfa0a7-378" target="FtbCnX3Roro6FYzfa0a7-390">
          <mxGeometry width="50" height="50" relative="1" as="geometry">
            <mxPoint x="680" y="1409" as="sourcePoint" />
            <mxPoint x="820" y="1320" as="targetPoint" />
          </mxGeometry>
        </mxCell>
        <mxCell id="FtbCnX3Roro6FYzfa0a7-395" value="" style="endArrow=classic;html=1;rounded=0;startArrow=classic;startFill=1;entryX=-0.008;entryY=0.165;entryDx=0;entryDy=0;entryPerimeter=0;" edge="1" parent="WIyWlLk6GJQsqaUBKTNV-1" source="FtbCnX3Roro6FYzfa0a7-378" target="FtbCnX3Roro6FYzfa0a7-408">
          <mxGeometry width="50" height="50" relative="1" as="geometry">
            <mxPoint x="690" y="1419" as="sourcePoint" />
            <mxPoint x="690" y="1371" as="targetPoint" />
          </mxGeometry>
        </mxCell>
        <mxCell id="FtbCnX3Roro6FYzfa0a7-419" value="" style="endArrow=classic;html=1;rounded=0;edgeStyle=orthogonalEdgeStyle;curved=1;" edge="1" parent="WIyWlLk6GJQsqaUBKTNV-1" source="FtbCnX3Roro6FYzfa0a7-379" target="FtbCnX3Roro6FYzfa0a7-414">
          <mxGeometry width="50" height="50" relative="1" as="geometry">
            <mxPoint x="500" y="1540" as="sourcePoint" />
            <mxPoint x="550" y="1490" as="targetPoint" />
            <Array as="points">
              <mxPoint x="750" y="1510" />
              <mxPoint x="430" y="1510" />
            </Array>
          </mxGeometry>
        </mxCell>
        <mxCell id="FtbCnX3Roro6FYzfa0a7-421" value="" style="endArrow=classic;html=1;rounded=0;exitX=1;exitY=0;exitDx=0;exitDy=0;edgeStyle=orthogonalEdgeStyle;curved=1;" edge="1" parent="WIyWlLk6GJQsqaUBKTNV-1" source="FtbCnX3Roro6FYzfa0a7-374" target="FtbCnX3Roro6FYzfa0a7-207">
          <mxGeometry width="50" height="50" relative="1" as="geometry">
            <mxPoint x="860" y="1080" as="sourcePoint" />
            <mxPoint x="910" y="1030" as="targetPoint" />
            <Array as="points">
              <mxPoint x="420" y="1220" />
              <mxPoint x="670" y="1220" />
              <mxPoint x="670" y="590" />
            </Array>
          </mxGeometry>
        </mxCell>
        <mxCell id="FtbCnX3Roro6FYzfa0a7-422" value="" style="endArrow=classic;html=1;rounded=0;exitX=1;exitY=0.25;exitDx=0;exitDy=0;entryX=-0.002;entryY=0.104;entryDx=0;entryDy=0;entryPerimeter=0;edgeStyle=orthogonalEdgeStyle;curved=1;" edge="1" parent="WIyWlLk6GJQsqaUBKTNV-1" source="FtbCnX3Roro6FYzfa0a7-134" target="FtbCnX3Roro6FYzfa0a7-23">
          <mxGeometry width="50" height="50" relative="1" as="geometry">
            <mxPoint x="140" y="360" as="sourcePoint" />
            <mxPoint x="190" y="310" as="targetPoint" />
          </mxGeometry>
        </mxCell>
        <mxCell id="FtbCnX3Roro6FYzfa0a7-423" value="" style="endArrow=classic;html=1;rounded=0;exitX=1;exitY=0.25;exitDx=0;exitDy=0;entryX=0;entryY=0;entryDx=0;entryDy=0;edgeStyle=orthogonalEdgeStyle;curved=1;" edge="1" parent="WIyWlLk6GJQsqaUBKTNV-1" source="FtbCnX3Roro6FYzfa0a7-134" target="FtbCnX3Roro6FYzfa0a7-10">
          <mxGeometry width="50" height="50" relative="1" as="geometry">
            <mxPoint x="140" y="450" as="sourcePoint" />
            <mxPoint x="190" y="400" as="targetPoint" />
            <Array as="points">
              <mxPoint x="399" y="218" />
              <mxPoint x="399" y="270" />
              <mxPoint x="400" y="270" />
            </Array>
          </mxGeometry>
        </mxCell>
        <mxCell id="FtbCnX3Roro6FYzfa0a7-426" value="" style="endArrow=classic;html=1;rounded=0;exitX=-0.026;exitY=0.094;exitDx=0;exitDy=0;exitPerimeter=0;entryX=1;entryY=0.5;entryDx=0;entryDy=0;edgeStyle=orthogonalEdgeStyle;curved=1;" edge="1" parent="WIyWlLk6GJQsqaUBKTNV-1" source="FtbCnX3Roro6FYzfa0a7-339" target="FtbCnX3Roro6FYzfa0a7-134">
          <mxGeometry width="50" height="50" relative="1" as="geometry">
            <mxPoint x="-210" y="880" as="sourcePoint" />
            <mxPoint x="-160" y="830" as="targetPoint" />
            <Array as="points">
              <mxPoint x="40" y="1082" />
              <mxPoint x="40" y="231" />
            </Array>
          </mxGeometry>
        </mxCell>
        <mxCell id="FtbCnX3Roro6FYzfa0a7-427" value="" style="endArrow=classic;html=1;rounded=0;exitX=1;exitY=0;exitDx=0;exitDy=0;entryX=0.997;entryY=0.369;entryDx=0;entryDy=0;edgeStyle=orthogonalEdgeStyle;curved=1;entryPerimeter=0;" edge="1" parent="WIyWlLk6GJQsqaUBKTNV-1" source="FtbCnX3Roro6FYzfa0a7-312" target="FtbCnX3Roro6FYzfa0a7-134">
          <mxGeometry width="50" height="50" relative="1" as="geometry">
            <mxPoint x="-210" y="890" as="sourcePoint" />
            <mxPoint x="-160" y="840" as="targetPoint" />
            <Array as="points">
              <mxPoint x="590" y="870" />
              <mxPoint x="370" y="870" />
              <mxPoint x="370" y="225" />
            </Array>
          </mxGeometry>
        </mxCell>
      </root>
    </mxGraphModel>
  </diagram>
</mxfile>
